<?xml version="1.0" encoding="UTF-8" standalone="no"?>
<!DOCTYPE svg PUBLIC "-//W3C//DTD SVG 1.1//EN" "http://www.w3.org/Graphics/SVG/1.1/DTD/svg11.dtd">
<svg xmlns="http://www.w3.org/2000/svg" version="1.1" viewBox="0 0 1295 1619">
<g stroke-width="2.00" fill="none" stroke-linecap="butt">
<path stroke="#b3d080" vector-effect="non-scaling-stroke" d="
  M 527.26 961.33
  Q 529.09 967.03 529.33 973.22
  Q 529.36 973.95 529.95 973.53
  L 536.46 968.89"
/>
<path stroke="#87e7fe" vector-effect="non-scaling-stroke" d="
  M 563.28 1037.03
  C 577.85 1023.57 565.97 1011.50 551.54 1008.46
  Q 548.55 1007.83 550.13 1005.22
  C 552.99 1000.49 556.26 994.51 556.22 989.19
  C 556.16 979.47 547.28 969.87 537.05 976.09
  Q 529.33 980.78 526.18 989.61
  Q 526.03 990.05 525.68 990.35
  Q 524.63 991.27 523.29 991.00
  Q 520.33 990.41 521.08 987.49
  C 523.23 979.12 523.67 968.52 519.72 961.09
  C 514.35 951.00 501.38 947.89 491.98 954.74
  C 486.24 958.92 482.71 968.25 480.20 975.25
  Q 479.25 977.91 476.74 976.62
  C 472.99 974.71 468.22 971.84 463.68 973.10
  Q 448.47 977.33 447.71 992.49
  C 447.20 1002.71 455.34 1005.61 463.92 1005.14
  Q 467.01 1004.97 468.17 1007.74
  A 0.91 0.90 -38.7 0 1 468.07 1008.61
  C 453.07 1028.85 477.62 1038.98 493.18 1031.64
  C 497.22 1029.74 499.56 1026.56 501.58 1022.72
  Q 502.64 1020.69 504.72 1021.68
  C 508.65 1023.55 501.50 1038.54 509.66 1043.36
  Q 516.04 1047.14 522.04 1043.28
  A 4.06 4.04 -6.9 0 0 523.69 1041.19
  L 526.96 1031.78
  A 1.42 1.41 -68.7 0 1 528.86 1030.94
  C 529.45 1031.19 530.47 1032.22 530.79 1032.90
  C 537.01 1046.08 553.63 1045.93 563.28 1037.03"
/>
<path stroke="#bcbafd" vector-effect="non-scaling-stroke" d="
  M 838.02 1026.03
  C 850.44 1031.31 857.64 1041.05 862.62 1053.48
  Q 862.87 1054.10 863.08 1053.47
  Q 869.10 1035.52 883.19 1022.93
  A 0.29 0.29 0.0 0 0 883.13 1022.46
  C 871.27 1016.59 862.60 1010.54 857.45 998.23
  Q 856.83 996.75 856.28 998.25
  Q 850.50 1014.06 837.88 1025.14
  A 0.54 0.53 -54.1 0 0 838.02 1026.03"
/>
<path stroke="#ffe231" vector-effect="non-scaling-stroke" d="
  M 634.81 1180.69
  Q 668.94 1182.48 700.68 1184.27
  Q 705.36 1184.53 710.03 1184.00
  Q 714.59 1183.48 714.76 1187.95
  Q 714.83 1189.75 714.57 1191.57
  L 702.44 1276.48
  A 0.24 0.17 -68.9 0 0 702.48 1276.64
  Q 702.52 1276.67 702.55 1276.69
  A 0.25 0.09 -64.0 0 0 702.73 1276.52
  L 764.64 1156.37
  A 0.54 0.53 -74.8 0 0 764.20 1155.59
  Q 733.45 1153.73 702.42 1152.23
  C 695.63 1151.91 699.41 1145.01 699.02 1140.74
  Q 696.14 1109.03 693.69 1076.74
  Q 693.44 1073.51 691.86 1076.34
  L 634.32 1179.80
  A 0.60 0.60 0.0 0 0 634.81 1180.69"
/>
</g>
<ellipse fill="#fdc003" cx="0.00" cy="0.00" transform="translate(680.66,276.43) rotate(93.1)" rx="5.08" ry="4.50"/>
<ellipse fill="#fdc003" cx="0.00" cy="0.00" transform="translate(680.00,296.40) rotate(127.8)" rx="6.17" ry="5.60"/>
<path fill="#fdc003" d="
  M 660.97 366.08
  C 656.88 365.54 649.50 364.35 652.96 358.87
  A 1.19 1.18 10.3 0 1 653.73 358.34
  Q 660.63 356.89 665.93 350.95
  C 674.54 341.30 676.89 330.76 676.06 318.23
  C 675.79 314.22 676.18 310.82 681.27 311.76
  Q 683.99 312.26 684.19 315.02
  Q 684.61 321.05 685.46 327.01
  C 687.63 342.25 690.10 348.98 706.13 353.30
  C 710.27 354.41 713.00 358.13 708.05 360.73
  Q 699.51 365.23 695.56 368.81
  C 689.14 374.64 686.42 388.67 686.02 397.11
  Q 685.93 399.12 684.08 399.93
  Q 682.30 400.71 680.77 399.64
  Q 678.84 398.29 678.74 395.94
  Q 678.49 390.50 677.56 385.20
  C 675.57 373.80 673.38 367.72 660.97 366.08
  Z"
/>
<path fill="#ffc102" d="
  M 559.53 847.89
  Q 556.36 845.54 553.07 843.40
  C 502.74 810.54 466.04 757.79 452.51 699.32
  C 420.06 559.13 518.84 424.37 660.82 408.87
  C 771.94 396.74 876.23 461.30 914.48 566.01
  C 916.68 572.04 911.65 577.79 907.17 571.54
  C 893.99 553.16 874.53 534.40 853.22 520.77
  C 805.20 490.07 744.46 488.00 694.69 515.43
  C 642.92 543.96 610.79 601.43 615.23 661.24
  C 624.93 791.99 778.81 851.72 875.26 763.50
  C 879.26 759.84 890.21 747.08 895.98 749.92
  C 902.30 753.02 894.72 766.74 892.46 770.46
  Q 877.94 794.34 856.84 814.93
  A 1.04 1.04 0.0 0 0 856.53 815.78
  Q 857.60 826.82 858.73 837.74
  C 859.45 844.77 849.39 846.80 848.17 838.64
  Q 847.19 832.06 846.77 825.79
  Q 846.68 824.40 845.61 825.30
  Q 785.32 876.37 706.13 883.19
  A 1.02 1.02 0.0 0 0 705.20 884.23
  Q 705.56 897.27 705.97 910.49
  C 706.21 918.18 695.73 919.32 695.33 910.43
  Q 694.74 897.33 694.45 884.23
  A 0.48 0.47 88.8 0 0 693.97 883.76
  Q 625.34 885.24 565.96 851.51
  Q 565.23 851.09 565.53 851.87
  C 568.54 859.64 556.83 863.37 555.45 854.84
  Q 554.72 850.32 559.48 848.37
  Q 559.93 848.18 559.53 847.89
  Z"
/>
<circle fill="#fdc003" cx="854.20" cy="854.29" r="4.96"/>
<circle fill="#fdc003" cx="557.63" cy="869.18" r="4.94"/>
<circle fill="#fdc003" cx="853.98" cy="874.23" r="6.31"/>
<circle fill="#ffc102" cx="552.85" cy="885.66" r="4.95"/>
<circle fill="#ffc102" cx="854.14" cy="897.37" r="7.40"/>
<rect fill="#ffc102" x="-5.23" y="-12.92" transform="translate(547.53,912.05) rotate(12.4)" width="10.46" height="25.84" rx="5.01"/>
<rect fill="#fdc003" x="-5.28" y="-16.64" transform="translate(854.67,929.58) rotate(-2.6)" width="10.56" height="33.28" rx="5.08"/>
<circle fill="#fdc003" cx="699.29" cy="933.34" r="5.93"/>
<ellipse fill="#fdc003" cx="0.00" cy="0.00" transform="translate(540.47,936.45) rotate(110.8)" rx="8.20" ry="5.04"/>
<path fill="#66dffd" d="
  M 527.26 961.33
  Q 529.09 967.03 529.33 973.22
  Q 529.36 973.95 529.95 973.53
  L 536.46 968.89
  Q 542.60 966.67 547.52 967.98
  C 562.50 971.95 566.34 990.26 558.85 1002.75
  A 0.37 0.37 0.0 0 0 559.08 1003.30
  C 574.84 1007.37 580.91 1020.50 573.35 1034.91
  C 565.72 1049.46 543.56 1054.60 530.66 1044.02
  A 0.49 0.48 38.0 0 0 529.97 1044.10
  Q 521.41 1054.95 509.53 1050.48
  C 503.14 1048.08 499.38 1043.51 498.68 1036.76
  A 0.35 0.34 72.9 0 0 498.18 1036.49
  Q 486.04 1042.79 473.41 1039.41
  C 461.19 1036.15 452.99 1024.87 459.58 1012.43
  A 0.34 0.34 0.0 0 0 459.33 1011.93
  C 442.24 1009.76 437.24 994.96 443.98 980.95
  C 448.98 970.54 463.80 961.91 475.28 968.46
  A 0.44 0.44 0.0 0 0 475.90 968.24
  C 479.68 958.95 484.57 949.80 494.51 945.96
  C 507.81 940.81 521.83 948.53 527.26 961.33
  Z
  M 563.28 1037.03
  C 577.85 1023.57 565.97 1011.50 551.54 1008.46
  Q 548.55 1007.83 550.13 1005.22
  C 552.99 1000.49 556.26 994.51 556.22 989.19
  C 556.16 979.47 547.28 969.87 537.05 976.09
  Q 529.33 980.78 526.18 989.61
  Q 526.03 990.05 525.68 990.35
  Q 524.63 991.27 523.29 991.00
  Q 520.33 990.41 521.08 987.49
  C 523.23 979.12 523.67 968.52 519.72 961.09
  C 514.35 951.00 501.38 947.89 491.98 954.74
  C 486.24 958.92 482.71 968.25 480.20 975.25
  Q 479.25 977.91 476.74 976.62
  C 472.99 974.71 468.22 971.84 463.68 973.10
  Q 448.47 977.33 447.71 992.49
  C 447.20 1002.71 455.34 1005.61 463.92 1005.14
  Q 467.01 1004.97 468.17 1007.74
  A 0.91 0.90 -38.7 0 1 468.07 1008.61
  C 453.07 1028.85 477.62 1038.98 493.18 1031.64
  C 497.22 1029.74 499.56 1026.56 501.58 1022.72
  Q 502.64 1020.69 504.72 1021.68
  C 508.65 1023.55 501.50 1038.54 509.66 1043.36
  Q 516.04 1047.14 522.04 1043.28
  A 4.06 4.04 -6.9 0 0 523.69 1041.19
  L 526.96 1031.78
  A 1.42 1.41 -68.7 0 1 528.86 1030.94
  C 529.45 1031.19 530.47 1032.22 530.79 1032.90
  C 537.01 1046.08 553.63 1045.93 563.28 1037.03
  Z"
/>
<path fill="#ffc102" d="
  M 536.46 968.89
  L 529.95 973.53
  Q 529.36 973.95 529.33 973.22
  Q 529.09 967.03 527.26 961.33
  C 529.19 956.85 529.68 950.44 535.33 949.02
  A 1.37 1.32 -38.0 0 1 536.28 949.12
  C 543.21 952.58 537.87 963.20 536.46 968.89
  Z"
/>
<circle fill="#ffc102" cx="698.75" cy="957.46" r="7.70"/>
<path fill="#a8eeff" d="
  M 563.28 1037.03
  C 553.63 1045.93 537.01 1046.08 530.79 1032.90
  C 530.47 1032.22 529.45 1031.19 528.86 1030.94
  A 1.42 1.41 -68.7 0 0 526.96 1031.78
  L 523.69 1041.19
  A 4.06 4.04 -6.9 0 1 522.04 1043.28
  Q 516.04 1047.14 509.66 1043.36
  C 501.50 1038.54 508.65 1023.55 504.72 1021.68
  Q 502.64 1020.69 501.58 1022.72
  C 499.56 1026.56 497.22 1029.74 493.18 1031.64
  C 477.62 1038.98 453.07 1028.85 468.07 1008.61
  A 0.91 0.90 -38.7 0 0 468.17 1007.74
  Q 467.01 1004.97 463.92 1005.14
  C 455.34 1005.61 447.20 1002.71 447.71 992.49
  Q 448.47 977.33 463.68 973.10
  C 468.22 971.84 472.99 974.71 476.74 976.62
  Q 479.25 977.91 480.20 975.25
  C 482.71 968.25 486.24 958.92 491.98 954.74
  C 501.38 947.89 514.35 951.00 519.72 961.09
  C 523.67 968.52 523.23 979.12 521.08 987.49
  Q 520.33 990.41 523.29 991.00
  Q 524.63 991.27 525.68 990.35
  Q 526.03 990.05 526.18 989.61
  Q 529.33 980.78 537.05 976.09
  C 547.28 969.87 556.16 979.47 556.22 989.19
  C 556.26 994.51 552.99 1000.49 550.13 1005.22
  Q 548.55 1007.83 551.54 1008.46
  C 565.97 1011.50 577.85 1023.57 563.28 1037.03
  Z"
/>
<circle fill="#ffc102" cx="854.69" cy="959.62" r="4.94"/>
<path fill="#fdc003" d="
  M 717.33 1005.69
  C 712.85 1030.33 682.28 1038.99 671.70 1012.64
  C 666.16 998.85 668.41 981.06 681.22 972.27
  C 696.13 962.04 711.23 972.79 716.69 987.27
  A 0.51 0.50 -32.8 0 1 716.57 987.80
  L 716.37 988.00
  A 0.13 0.13 0.0 0 1 716.18 988.00
  C 691.41 963.29 680.78 1008.57 702.10 1014.55
  C 709.67 1016.68 715.25 1010.31 717.24 1003.38
  Q 717.40 1002.84 717.63 1003.35
  Q 718.05 1004.22 717.60 1004.97
  Q 717.40 1005.30 717.33 1005.69
  Z"
/>
<path fill="#a9a8fc" d="
  M 826.46 1032.77
  C 823.45 1032.61 810.97 1034.77 812.87 1027.72
  Q 813.47 1025.48 815.77 1025.22
  Q 824.12 1024.25 830.54 1019.62
  C 845.83 1008.59 850.32 991.05 851.81 973.01
  C 852.02 970.51 853.05 968.98 855.53 968.68
  Q 857.45 968.45 858.00 970.30
  C 863.60 989.04 865.04 1005.41 885.70 1013.80
  C 887.68 1014.60 905.70 1018.17 898.35 1023.16
  C 894.38 1025.85 889.82 1028.53 886.58 1031.80
  C 868.97 1049.55 868.03 1068.23 866.54 1092.06
  Q 866.42 1093.97 865.02 1095.26
  C 861.15 1098.85 859.82 1092.69 859.46 1089.72
  C 856.95 1068.70 855.55 1034.26 826.46 1032.77
  Z
  M 838.02 1026.03
  C 850.44 1031.31 857.64 1041.05 862.62 1053.48
  Q 862.87 1054.10 863.08 1053.47
  Q 869.10 1035.52 883.19 1022.93
  A 0.29 0.29 0.0 0 0 883.13 1022.46
  C 871.27 1016.59 862.60 1010.54 857.45 998.23
  Q 856.83 996.75 856.28 998.25
  Q 850.50 1014.06 837.88 1025.14
  A 0.54 0.53 -54.1 0 0 838.02 1026.03
  Z"
/>
<path fill="#d0cdff" fill-opacity="0.996" d="
  M 838.02 1026.03
  A 0.54 0.53 -54.1 0 1 837.88 1025.14
  Q 850.50 1014.06 856.28 998.25
  Q 856.83 996.75 857.45 998.23
  C 862.60 1010.54 871.27 1016.59 883.13 1022.46
  A 0.29 0.29 0.0 0 1 883.19 1022.93
  Q 869.10 1035.52 863.08 1053.47
  Q 862.87 1054.10 862.62 1053.48
  C 857.64 1041.05 850.44 1031.31 838.02 1026.03
  Z"
/>
<ellipse fill="#fdc003" cx="0.00" cy="0.00" transform="translate(697.35,1040.75) rotate(69.2)" rx="4.99" ry="4.51"/>
<path fill="#fed902" d="
  M 709.07 1143.22
  Q 737.00 1144.82 764.96 1146.13
  C 769.27 1146.33 772.49 1147.02 775.30 1149.90
  Q 777.37 1152.02 776.01 1154.66
  Q 739.01 1226.37 702.15 1298.08
  C 699.11 1304.00 688.91 1304.54 690.15 1295.98
  Q 697.11 1247.87 703.91 1199.74
  Q 704.30 1196.96 704.89 1194.68
  A 0.84 0.84 0.0 0 0 704.13 1193.64
  Q 668.47 1191.67 632.85 1189.90
  Q 627.87 1189.65 625.94 1188.26
  C 622.83 1186.01 622.48 1181.93 624.40 1178.50
  Q 657.75 1118.65 690.98 1058.72
  C 692.11 1056.70 691.99 1053.06 695.44 1052.58
  C 700.04 1051.95 701.10 1055.17 701.43 1059.12
  Q 704.97 1100.90 708.52 1142.69
  A 0.59 0.58 -0.5 0 0 709.07 1143.22
  Z
  M 634.81 1180.69
  Q 668.94 1182.48 700.68 1184.27
  Q 705.36 1184.53 710.03 1184.00
  Q 714.59 1183.48 714.76 1187.95
  Q 714.83 1189.75 714.57 1191.57
  L 702.44 1276.48
  A 0.24 0.17 -68.9 0 0 702.48 1276.64
  Q 702.52 1276.67 702.55 1276.69
  A 0.25 0.09 -64.0 0 0 702.73 1276.52
  L 764.64 1156.37
  A 0.54 0.53 -74.8 0 0 764.20 1155.59
  Q 733.45 1153.73 702.42 1152.23
  C 695.63 1151.91 699.41 1145.01 699.02 1140.74
  Q 696.14 1109.03 693.69 1076.74
  Q 693.44 1073.51 691.86 1076.34
  L 634.32 1179.80
  A 0.60 0.60 0.0 0 0 634.81 1180.69
  Z"
/>
<path fill="#ffea60" d="
  M 634.81 1180.69
  A 0.60 0.60 0.0 0 1 634.32 1179.80
  L 691.86 1076.34
  Q 693.44 1073.51 693.69 1076.74
  Q 696.14 1109.03 699.02 1140.74
  C 699.41 1145.01 695.63 1151.91 702.42 1152.23
  Q 733.45 1153.73 764.20 1155.59
  A 0.54 0.53 -74.8 0 1 764.64 1156.37
  L 702.73 1276.52
  A 0.25 0.09 -64.0 0 1 702.55 1276.69
  Q 702.52 1276.67 702.48 1276.64
  A 0.24 0.17 -68.9 0 1 702.44 1276.48
  L 714.57 1191.57
  Q 714.83 1189.75 714.76 1187.95
  Q 714.59 1183.48 710.03 1184.00
  Q 705.36 1184.53 700.68 1184.27
  Q 668.94 1182.48 634.81 1180.69
  Z"
/>
</svg>
