<?xml version="1.0" encoding="UTF-8"?>
<svg xmlns="http://www.w3.org/2000/svg" viewBox="0 0 171.13 120.26">
  <defs>
    <style>
      .cls-1 {
        fill: #ffcd18;
      }

      .cls-1, .cls-2, .cls-3, .cls-4, .cls-5, .cls-6, .cls-7, .cls-8, .cls-9 {
        fill-rule: evenodd;
      }

      .cls-2 {
        fill: #07d0fc;
      }

      .cls-3 {
        fill: #0bbafd;
      }

      .cls-4 {
        fill: #0e6ff1;
      }

      .cls-5 {
        fill: #0681bc;
      }

      .cls-6 {
        fill: #fecd18;
      }

      .cls-7 {
        fill: #0e82f3;
      }

      .cls-8 {
        fill: #fda912;
      }

      .cls-9 {
        fill: #fed73e;
      }
    </style>
  </defs>
  <g id="Moon">
    <path class="cls-9" d="M146.58,73.21c-19.87,62.58-80.75,54.03-105.82,24.47C19.3,72.38,15.34,26.3,72.53,0c-26.86,41.52,21.09,102.24,74.05,73.21Z"/>
    <path class="cls-8" d="M142.99,82.78c-49.13,50.37-107.34,25.91-112.09-45.34-9.81,21.68-3.23,44.82,9.85,60.25,23.71,27.96,79.45,37.12,102.24-14.9Z"/>
    <path class="cls-6" d="M30.91,37.44c4.75,71.25,62.96,95.71,112.09,45.34,1.31-2.98,2.51-6.17,3.58-9.56-5.19,2.85-10.34,4.83-15.37,6.05-27.79,38.84-96.57,24.49-87.44-60.04-5.81,5.8-10.02,11.94-12.85,18.21Z"/>
  </g>
  <g id="Star">
    <path class="cls-1" d="M86.2,9.68l12.15,7.47,9.33-7.83s.02-.02.03-.03l1.15-.92c.14-.11.32-.17.51-.15.38.05.65.39.6.77l-1.79,14.49,14.55,9.07c.19.12.32.34.32.58,0,.22-.1.42-.26.54l-1.15.92c-.12.09-.26.15-.42.15l-15.12.17-2.04,16.52c-.02.18-.11.34-.25.45l-1.15.92c-.06.05-.13.09-.2.11-.36.12-.75-.06-.88-.42l-6.22-17.82-15.76,1.03c-.2.01-.4-.06-.54-.22-.26-.28-.25-.71.03-.97l10.98-10.32-5.97-12.69c-.11-.21-.11-.47.02-.69.04-.07.1-.13.16-.18l1.15-.92c.22-.18.54-.21.79-.05Z"/>
    <path class="cls-9" d="M98.44,18.02l-12.6-7.75,6.2,13.18-11.34,10.66,16.28-1.07,6.4,18.32,2.23-18.03,16.77-.19-14.93-9.3,1.84-14.93-10.86,9.11Z"/>
  </g>
  <g id="Ring">
    <path class="cls-2" d="M26.95,50.31c-.64,6.67-.41,13.1,0,19.47-18.83,13.25-8.96,22.13,14.89,19.01,44.36-5.8,87-21.87,111.54-55.88,7.57-10.49-9.09-18.35-36.19-16.49,34.65-12.81,59.39-3.21,52.91,15.8-13.72,40.25-76.61,63.95-127.34,72.14-21.2,3.43-40.37-2.22-42.6-16.72-1.64-10.67,9.78-25.45,26.8-37.33Z"/>
    <path class="cls-5" d="M26.95,50.31c-17.98,18.7-22.61,31.85-6.84,36.52-5.31-3.28-3.73-9.63,7.08-17.23-.54-6.49-.75-12.79-.24-19.28Z"/>
    <path class="cls-4" d="M20.11,86.83c-15.77-4.67-11.14-17.82,6.84-36.52C9.93,62.2-1.48,76.98.16,87.64c2.23,14.5,21.4,20.15,42.6,16.72,21.66-3.5,45.54-9.83,66.85-19.06-32.46,5.7-61.18,8.87-78.07,4.09-5.06-.14-8.97-1.04-11.44-2.57Z"/>
    <path class="cls-7" d="M67.6,84.14c-8.44,1.98-17.07,3.51-25.76,4.65-3.81.5-7.26.69-10.3.61,16.89,4.78,45.6,1.61,78.07-4.09,9.26-4.01,18.03-8.57,25.93-13.68-24.83,9.92-47.28,13.59-67.94,12.51Z"/>
    <path class="cls-3" d="M107.65,70.18c-12.44,6.09-25.98,10.65-40.05,13.95,20.66,1.08,43.11-2.6,67.94-12.51,3.75-2.43,7.3-4.98,10.62-7.65,8.09-6.53,14.76-13.81,19.4-21.84-5.59,4.99-12.21,9.36-19.4,13.19-11.91,6.33-25.41,11.18-38.51,14.86Z"/>
  </g>
</svg>