<svg width="20985.75" height="20985.75" xmlns="http://www.w3.org/2000/svg" clip-rule="evenodd" version="1.0" xml:space="preserve">

 <g>
  <title>Layer 1</title>
  <g stroke="null" id="圖層_x0020_1">
   <metadata stroke="null" id="CorelCorpID_0Corel-Layer"/>
   <rect stroke="null" x="0" y="-4347.0498" id="svg_1" fill="none" height="29679.85" width="20985.75" class="fil0"/>
   <g stroke="null" id="_2605490994944">
    <path stroke="null" id="svg_2" fill="#FECC1D" d="m12318.49,5605.3202l-1488.58,-913.86c0,0 -37.03,-17.96 -65.26,1.97c-28.21,19.94 -153.31,120.7 -153.31,120.7c0,0 -57.48,33.57 -12.67,134.84c44.8,101.27 719.24,1521.68 719.24,1521.68l-1344.64,1251.71c0,0 -31.05,43.72 -19.02,91.88c12.04,48.15 110.29,57.03 183.15,48.79c72.87,-8.24 1833.99,-114.33 1833.99,-114.33l756.89,2179.49c0,0 24.74,67.77 100.63,41.21c75.89,-26.56 161.52,-101.37 189.71,-156.11c28.18,-54.74 56.81,-400.08 68.18,-490.18c11.36,-90.09 187.82,-1547.08 187.82,-1547.08l1812.59,-19.37c0,0 69.04,5.2 129.58,-45.35c60.54,-50.54 119.77,-105.44 129.77,-128.53c10,-23.08 11.88,-69.26 -49.91,-101.71c-61.78,-32.46 -1763.31,-1084.96 -1763.31,-1084.96l222.06,-1791.92c0,0 11.33,-60.09 -34.59,-80.74c-45.92,-20.64 -79.43,-10.85 -141.84,38.15c-62.42,49.02 -1236.65,1042.07 -1236.65,1042.07l-23.85,1.66l0.02,-0.01z" class="fil1"/>
    <polygon stroke="null" id="svg_3" fill="#FED73E" points="10801.91015625,4777.16015625 11555.6396484375,6381.4404296875 10197.5703125,7669.5205078125 12169.9599609375,7551.1806640625 12946.9697265625,9773.240234375 13230.5302734375,7585.23046875 15290.41015625,7564.009765625 13458.740234375,6436 13666.7900390625,4597.259765625 12324.0302734375,5693.310546875 " class="fil2"/>
    <path stroke="null" id="svg_4" fill="#FDA912" d="m9021.93,3729.1702c0,0 -798.54,367.86 -1461.23,785.46c-662.69,417.6 -1579.73,1047.13 -2307.38,1974.62c-727.65,927.49 -1301.01,2077.61 -1337.5,3063.44c-36.5,985.83 -57.58,2062.35 283.88,2952.9c341.46,890.55 701.37,1850.25 2145.63,3073.05c1444.25,1222.8 3599.1,1836.5 5380.19,1642.68c1781.09,-193.81 2948.47,-1052.04 3746.76,-1877.99c798.29,-825.96 1487.98,-2074.52 1898.67,-3408.12c0,0 -45.89,15.99 -104.94,57.8c-59.04,41.82 -719.33,387.03 -1545.65,623.46c-826.31,236.43 -2682.97,423.68 -4281.26,-507.7c-1598.29,-931.37 -2362.51,-2147.6 -2766.41,-3087.09c-401.49,-933.8 -989.11,-3220.86 349.03,-5259.24c8.08,-12.35 14.55,-26.27 0.22,-33.28l-0.01,0.01z" class="fil3"/>
    <path stroke="null" id="svg_5" fill="#FECD18" d="m9021.93,3729.1702c0,0 -798.54,367.86 -1461.23,785.46c-662.69,417.6 -1579.73,1047.13 -2307.38,1974.62c-361.6,460.94 -685.1,976.85 -923.53,1500.27c23.05,633.48 249.19,3963.86 2466.73,6250.89c533.59,550.28 1095.93,960.77 1678.23,1248.5c670.05,331.07 1377.28,500.04 2269.17,533.1c1385.75,51.37 2675.93,-410.05 3758.93,-1040.15c1089.9,-634.16 1961.72,-1426.26 2436.96,-1899.08c165,-369.39 310.19,-754.79 431.14,-1147.55c0,0 -45.89,15.99 -104.94,57.8c-59.04,41.82 -719.33,387.03 -1545.65,623.46c-826.31,236.43 -2682.97,423.68 -4281.26,-507.7c-1598.29,-931.37 -2362.51,-2147.6 -2766.41,-3087.09c-401.49,-933.8 -989.11,-3220.86 349.03,-5259.24c8.08,-12.35 14.55,-26.27 0.22,-33.28l-0.01,-0.01z" class="fil4"/>
    <path stroke="null" id="svg_6" fill="#FED73E" d="m9021.93,3729.1702c0,0 -798.54,367.86 -1461.23,785.46c-503.11,317.02 -1152.8,756.25 -1754.95,1355.24c-51.93,396.26 -222.86,1991.12 93.95,3885.48c366.27,2190.09 1662.12,4351.66 4285.73,5069.24c2500.49,683.94 4763.36,-1123.98 5462.03,-2188.14c-858.67,226.17 -2655.43,377.28 -4208.37,-527.66c-1598.29,-931.37 -2362.51,-2147.6 -2766.41,-3087.09c-401.49,-933.8 -989.11,-3220.86 349.03,-5259.24c8.08,-12.35 14.55,-26.27 0.22,-33.28l0,-0.01z" class="fil2"/>
    <path stroke="null" id="svg_7" fill="#0E6FF1" d="m3909.81,9383.1302c0,0 -951.47,663.97 -1542.47,1277.76c-591,613.8 -1197.96,1408.62 -1383.68,2058.7c-185.72,650.07 -105.6,1058.62 142.83,1536.93c248.43,478.3 1067.48,1135.7 2423.51,1273.4c1356.05,137.71 3107.58,-201.29 3965.71,-427.31c858.13,-226.02 3200.57,-710.65 4747.41,-1398.14c470.97,-209.3 981.08,-381.55 1562.94,-656.31c1329.26,-627.75 2866.5,-1504.93 3979.18,-2544.54c1599.76,-1494.74 2389.39,-3047.64 2290.53,-4023.6c-98.85,-975.96 -1351.49,-1762.33 -3463.53,-1514.57c0,0 -1285.4,100.76 -2553.84,610.59c0,0 1508.02,-58.34 2251.2,67.57c743.2,125.92 1288.91,296.84 1687.24,628.58c388.66,323.68 364.22,780.36 140.06,1101.43c-224.17,321.07 -790.84,1090.79 -1490.28,1719.59c-699.44,628.8 -1520.43,1339.83 -2652.78,1976.28c-1132.36,636.45 -2934.92,1457.85 -4447.57,1829.82c-1512.66,371.96 -3095.58,805.89 -4484.25,867.9c-1388.69,62.01 -2235.95,-219.04 -2682.31,-636.48c-446.36,-417.44 -438.1,-1058.02 20.67,-1859.82c458.78,-801.79 1489.42,-1887.78 1489.42,-1887.78l0.01,0z" class="fil5"/>
    <path stroke="null" id="svg_8" fill="#0E82F3" d="m13062.32,13377.1102c241.43,-96.97 494.92,-202.03 763.73,-328.97c855.68,-404.1 1797.49,-911.6 2656.83,-1499.19l-4593.48,552.88c-768.55,324.06 -1580.72,614.91 -2323.11,797.46c-1512.66,371.96 -3095.58,805.89 -4484.25,867.9c-229.51,10.25 -444.13,11.05 -644.69,3.5c360.81,124.18 1410.68,392.98 3452.31,247.16c2144.49,-153.18 4425.82,-515.97 5172.68,-640.74l-0.02,0z" class="fil6"/>
    <path stroke="null" id="svg_9" fill="#0BBAFD" d="m16002.29,11844.2102c648.74,-397.6 1269.99,-842.66 1802.94,-1340.6c699.44,-653.52 1243.91,-1318.11 1627.09,-1940.8c-517.79,417.7 -1726.35,1308.08 -3355.5,1970.51c-1366.8,555.75 -2418.02,874.37 -3018.41,1036.06l32.74,-16.09c-1062.13,522.67 -2376.71,1063.73 -3524.86,1346.02c-392.02,96.39 -788.76,196.97 -1185.63,294.13c515.97,20.7 2380.88,61.21 4210.89,-326.11c1273.12,-269.45 2566.77,-709.09 3410.75,-1023.12l-0.01,0zm3812.39,-4006.22c14.46,-33.22 28.38,-66.24 41.78,-99.04c-13.4,32.81 -27.29,65.8 -41.78,99.04zm80.32,-196.78c13.35,-34.94 26.05,-69.61 38.09,-104.01l-9.23,3.03l-23.6,87.13l-5.26,13.85zm-2522.05,731.57l-0.04,0l-19.84,22.51l19.88,-22.51z" class="fil7"/>
    <path stroke="null" id="svg_10" fill="#07D0FC" d="m19432.47,8562.6802c200.43,-325.79 356.61,-640.09 467.78,-935.32l178.34,-658.83c26.53,-174.93 32.36,-338.53 17.17,-488.52c-98.85,-975.96 -1351.49,-1762.33 -3463.53,-1514.57c0,0 -1285.4,100.76 -2553.84,610.59c0,0 1508.02,-58.34 2251.2,67.57c743.2,125.92 1288.91,296.84 1687.24,628.58c388.66,323.68 364.22,780.36 140.06,1101.43c-224.17,321.07 -790.84,1090.79 -1490.28,1719.59c-699.44,628.8 -1520.43,1339.83 -2652.78,1976.28c-281.88,158.43 -605.34,328.33 -955.45,499.89c600.39,-161.69 1651.61,-480.3 3018.41,-1036.06c1629.31,-662.49 2837.96,-1553.01 3355.66,-1970.63l0.02,0z" class="fil8"/>
   </g>
  </g>
 </g>
</svg>