<svg xmlns="http://www.w3.org/2000/svg" xmlns:xlink="http://www.w3.org/1999/xlink" id="图层_1" width="764" height="158" x="0" y="0" enable-background="new 0 0 764 158" version="1.1" viewBox="0 0 764 158" xml:space="preserve"><g><g><path fill="#4B81E6" d="M10.991,150.082c-1.825-1.825-2.738-4.075-2.738-6.753V19.756c0-2.798,0.913-5.079,2.738-6.845 c1.825-1.763,4.076-2.646,6.754-2.646h82.503c2.798,0,5.048,0.821,6.754,2.464c1.703,1.643,2.555,3.805,2.555,6.48 c0,2.555-0.853,4.626-2.555,6.206c-1.706,1.583-3.956,2.373-6.754,2.373H27.236v44.355h52.386c2.675,0,4.896,0.821,6.662,2.464 c1.763,1.643,2.646,3.742,2.646,6.297c0,2.555-0.884,4.654-2.646,6.297c-1.766,1.643-3.987,2.464-6.662,2.464H27.236v45.633 h73.012c2.798,0,5.048,0.793,6.754,2.372c1.703,1.583,2.555,3.651,2.555,6.206c0,2.679-0.853,4.838-2.555,6.48 c-1.706,1.643-3.956,2.464-6.754,2.464H17.745C15.066,152.82,12.816,151.907,10.991,150.082z"/><path fill="#F3433C" d="M129.178,148.531c-4.198-2.858-7.455-6.874-9.766-12.047c-2.313-5.171-3.468-10.98-3.468-17.432V19.392 c0-2.675,0.85-4.866,2.555-6.571c1.703-1.703,3.894-2.555,6.571-2.555c2.676,0,4.866,0.853,6.571,2.555 c1.702,1.706,2.556,3.896,2.556,6.571v99.661c0,4.503,0.85,8.214,2.555,11.134c1.703,2.921,3.894,4.381,6.571,4.381h4.563 c2.433,0,4.409,0.853,5.933,2.556c1.52,1.705,2.281,3.896,2.281,6.571c0,2.678-1.158,4.868-3.468,6.57 c-2.313,1.706-5.294,2.556-8.944,2.556h-0.365C138.09,152.82,133.376,151.392,129.178,148.531z"/><path fill="#FEBB32" d="M225.004,58.909c7.603,4.443,13.627,10.527,18.07,18.253c4.44,7.729,6.662,16.336,6.662,25.828v40.704 c0,2.678-0.885,4.899-2.646,6.662c-1.766,1.765-3.987,2.646-6.663,2.646c-2.678,0-4.899-0.882-6.662-2.646 c-1.766-1.763-2.646-3.984-2.646-6.662v-6.754c-4.261,5.233-9.432,9.309-15.515,12.229c-6.087,2.92-12.657,4.381-19.714,4.381 c-8.761,0-16.701-2.19-23.819-6.571c-7.119-4.381-12.718-10.433-16.793-18.162c-4.078-7.726-6.115-16.336-6.115-25.827 c0-9.492,2.19-18.099,6.571-25.828c4.381-7.726,10.433-13.81,18.162-18.253c7.726-4.441,16.273-6.663,25.646-6.663 C208.91,52.247,217.398,54.468,225.004,58.909z M216.06,132.65c4.928-2.979,8.79-7.056,11.591-12.229 c2.798-5.17,4.198-10.979,4.198-17.431c0-6.449-1.4-12.29-4.198-17.523c-2.801-5.23-6.663-9.337-11.591-12.32 c-4.929-2.98-10.436-4.472-16.519-4.472c-6.087,0-11.591,1.492-16.52,4.472c-4.928,2.983-8.824,7.09-11.682,12.32 c-2.86,5.234-4.289,11.075-4.289,17.523c0,6.451,1.429,12.261,4.289,17.431c2.857,5.174,6.754,9.25,11.682,12.229 c4.929,2.983,10.433,4.473,16.52,4.473C205.625,137.123,211.131,135.634,216.06,132.65z"/><path fill="#4B81E6" d="M267.441,150.082c-1.825-1.825-2.738-4.075-2.738-6.753V19.756c0-2.798,0.913-5.079,2.738-6.845 c1.825-1.763,4.075-2.646,6.753-2.646h43.625c8.15,0,15.393,1.614,21.721,4.837c6.326,3.226,11.285,7.729,14.876,13.507 c3.588,5.781,5.385,12.32,5.385,19.622c0,5.964-1.614,11.317-4.837,16.063c-3.226,4.746-7.638,8.579-13.233,11.5 c8.273,1.948,14.785,5.841,19.53,11.682c4.746,5.841,7.119,13.265,7.119,22.269c0,8.276-1.979,15.698-5.933,22.269 c-3.955,6.571-9.491,11.683-16.61,15.333c-7.118,3.65-15.181,5.476-24.185,5.476h-47.458 C271.516,152.82,269.266,151.907,267.441,150.082z M317.819,68.857c7.179,0,12.928-1.763,17.249-5.293 c4.317-3.528,6.479-8.639,6.479-15.333c0-6.691-2.162-11.773-6.479-15.241c-4.321-3.468-10.07-5.202-17.249-5.202h-34.133v41.069 H317.819z M321.652,135.298c8.516,0,15.393-2.219,20.626-6.663c5.23-4.44,7.849-10.737,7.849-18.892 c0-7.544-2.587-13.324-7.758-17.34c-5.174-4.016-12.078-6.023-20.717-6.023h-37.966v48.918H321.652z"/><path fill="#0AA758" d="M399.406,147.07c-7.666-4.317-13.629-10.313-17.887-17.979c-4.261-7.667-6.389-16.365-6.389-26.102 c0-9.857,2.128-18.618,6.389-26.285c4.258-7.666,10.221-13.658,17.887-17.979c7.668-4.318,16.365-6.48,26.104-6.48 c9.611,0,18.221,2.162,25.826,6.48c7.604,4.321,13.568,10.313,17.889,17.979c4.318,7.667,6.48,16.428,6.48,26.285 c0,9.736-2.131,18.435-6.389,26.102c-4.262,7.666-10.193,13.661-17.797,17.979c-7.607,4.321-16.277,6.48-26.01,6.48 C415.771,153.551,407.074,151.392,399.406,147.07z M442.211,132.742c4.928-2.921,8.762-6.965,11.498-12.139 c2.738-5.17,4.107-11.043,4.107-17.613c0-6.571-1.369-12.472-4.107-17.706c-2.736-5.231-6.57-9.309-11.498-12.229 c-4.93-2.92-10.496-4.381-16.701-4.381c-6.207,0-11.773,1.46-16.703,4.381c-4.928,2.92-8.791,6.999-11.59,12.229 c-2.801,5.233-4.197,11.134-4.197,17.706c0,6.57,1.396,12.443,4.197,17.613c2.799,5.174,6.662,9.218,11.59,12.139 c4.93,2.92,10.496,4.381,16.703,4.381C431.715,137.123,437.281,135.662,442.211,132.742z"/><path fill="#FEBB32" d="M501.805,149.718c-7.303-2.556-13.023-5.901-17.158-10.04c-1.584-1.579-2.373-3.468-2.373-5.658 c0-2.92,1.215-5.293,3.65-7.118c2.311-1.703,4.441-2.556,6.389-2.556c2.432,0,4.746,1.096,6.936,3.285 c2.311,2.556,5.779,4.777,10.404,6.663c4.623,1.888,9.551,2.829,14.785,2.829c6.936,0,12.32-1.155,16.154-3.469 c3.832-2.31,5.75-5.413,5.75-9.309c0-3.771-1.889-6.904-5.66-9.4c-3.771-2.492-10.16-4.592-19.164-6.297 c-23.365-4.5-35.047-14.115-35.047-28.84c0-5.961,1.764-11.012,5.293-15.15c3.529-4.135,8.152-7.238,13.873-9.309 c5.719-2.068,11.803-3.103,18.254-3.103c7.908,0,14.994,1.278,21.264,3.833c6.266,2.556,11.227,6.086,14.877,10.587 c1.58,1.948,2.373,3.896,2.373,5.841c0,2.071-1.037,3.956-3.104,5.659c-1.34,0.975-3.043,1.46-5.111,1.46 c-3.166,0-6.023-1.155-8.578-3.468c-3.043-2.798-6.27-4.774-9.674-5.933c-3.408-1.155-7.547-1.734-12.412-1.734 c-5.6,0-10.193,0.944-13.781,2.829c-3.592,1.888-5.385,4.535-5.385,7.94c0,2.436,0.607,4.472,1.824,6.115 c1.215,1.643,3.529,3.166,6.938,4.563c3.404,1.4,8.334,2.77,14.785,4.107c13.262,2.678,22.662,6.389,28.199,11.134 c5.537,4.746,8.307,10.893,8.307,18.436c0,5.599-1.523,10.679-4.564,15.241c-3.043,4.563-7.516,8.154-13.416,10.77 c-5.902,2.618-12.99,3.925-21.264,3.925C516.891,153.551,509.105,152.272,501.805,149.718z"/><path fill="#F3433C" d="M644.086,58.909c7.602,4.443,13.627,10.527,18.07,18.253c4.439,7.729,6.662,16.336,6.662,25.828v40.704 c0,2.678-0.885,4.899-2.646,6.662c-1.766,1.765-3.988,2.646-6.664,2.646c-2.678,0-4.898-0.882-6.662-2.646 c-1.766-1.763-2.646-3.984-2.646-6.662v-6.754c-4.26,5.233-9.432,9.309-15.514,12.229c-6.088,2.92-12.658,4.381-19.715,4.381 c-8.76,0-16.701-2.19-23.818-6.571c-7.119-4.381-12.719-10.433-16.793-18.162c-4.078-7.726-6.115-16.336-6.115-25.827 c0-9.492,2.189-18.099,6.57-25.828c4.381-7.726,10.434-13.81,18.162-18.253c7.727-4.441,16.273-6.663,25.646-6.663 C627.99,52.247,636.479,54.468,644.086,58.909z M635.141,132.65c4.928-2.979,8.791-7.056,11.592-12.229 c2.797-5.17,4.197-10.979,4.197-17.431c0-6.449-1.4-12.29-4.197-17.523c-2.801-5.23-6.664-9.337-11.592-12.32 c-4.928-2.98-10.436-4.472-16.518-4.472c-6.088,0-11.592,1.492-16.52,4.472c-4.928,2.983-8.824,7.09-11.682,12.32 c-2.861,5.234-4.289,11.075-4.289,17.523c0,6.451,1.428,12.261,4.289,17.431c2.857,5.174,6.754,9.25,11.682,12.229 c4.928,2.983,10.432,4.473,16.52,4.473C624.705,137.123,630.213,135.634,635.141,132.65z"/><path fill="#4B81E6" d="M759.35,145.154c0,2.678-1.096,4.928-3.285,6.753c-1.826,1.461-3.773,2.19-5.842,2.19 c-2.678,0-4.867-1.095-6.57-3.285l-34.68-42.895l-9.127,8.031v27.927c0,2.679-0.822,4.838-2.465,6.48s-3.805,2.464-6.48,2.464 c-2.678,0-4.836-0.821-6.479-2.464s-2.465-3.802-2.465-6.48V19.209c0-2.675,0.822-4.837,2.465-6.48 c1.643-1.643,3.801-2.464,6.479-2.464c2.676,0,4.838,0.821,6.48,2.464c1.643,1.643,2.465,3.805,2.465,6.48v74.29l44.354-39.609 c1.58-1.58,3.469-2.373,5.658-2.373c2.557,0,4.623,0.976,6.207,2.92c1.58,1.583,2.373,3.468,2.373,5.658 c0,2.556-0.977,4.626-2.92,6.206l-33.586,29.935l35.41,43.441C758.68,141.139,759.35,142.964,759.35,145.154z"/></g></g></svg>