<?xml version="1.0" encoding="utf-8"?>
<!-- Generator: Adobe Illustrator 16.0.0, SVG Export Plug-In . SVG Version: 6.00 Build 0)  -->
<!DOCTYPE svg PUBLIC "-//W3C//DTD SVG 1.1//EN" "http://www.w3.org/Graphics/SVG/1.1/DTD/svg11.dtd">
<svg version="1.1" id="图层_1" xmlns="http://www.w3.org/2000/svg" xmlns:xlink="http://www.w3.org/1999/xlink" x="0px" y="0px"
	 width="782px" height="157px" viewBox="0 0 782 157" enable-background="new 0 0 782 157" xml:space="preserve">
<g>
	<path fill-rule="evenodd" clip-rule="evenodd" fill="#4B81E6" d="M358.586,73.048c20.088,9.117,28.105,22.107,25.098,40.11
		c-3.346,20.032-18.346,34.138-38.504,35.93c-18.021,1.602-36.08,1.002-54.12,0.361c-6.809-0.241-9.857-3.523-9.87-10.516
		c-0.081-40.019-0.082-80.039,0.004-120.058c0.015-6.843,3.132-10.506,9.958-10.519c17.126-0.031,34.323-1.472,51.371,0.79
		c21.96,2.912,35.915,21.906,32.118,42.943C373.291,59.564,369.862,64.082,358.586,73.048z"/>
	<path fill-rule="evenodd" clip-rule="evenodd" fill="#4B81E6" d="M14.395,78.515c0-19.438-0.052-38.874,0.024-58.311
		c0.033-8.459,3.148-11.973,11.413-11.999c25.834-0.081,51.672,0.001,77.504,0.308c8.389,0.1,11.388,2.81,11.333,8.621
		c-0.058,5.993-3.479,8.337-12.288,8.342c-20.351,0.013-40.711,0.34-61.049-0.183c-6.914-0.177-8.404,2.012-8.057,8.407
		c0.545,10.032,0.346,20.121,0.054,30.173c-0.13,4.457,1.219,5.896,5.751,5.818c14.859-0.254,29.726-0.122,44.589-0.071
		c5.24,0.017,9.621,1.517,10.392,7.602c0.76,6-2.998,9.71-10.243,9.779c-14.634,0.14-29.273,0.246-43.901-0.06
		c-4.957-0.104-6.833,1.02-6.625,6.369c0.428,10.96,0.45,21.96-0.005,32.918c-0.231,5.584,2.09,6.253,6.806,6.206
		c21.264-0.212,42.531-0.075,63.797-0.101c4.34-0.006,8.311,0.674,10.255,5.197c1.871,4.354-0.39,9.699-4.849,11.333
		c-1.687,0.617-3.579,0.951-5.376,0.947c-26.292-0.062-52.585-0.075-78.875-0.405c-7.691-0.095-10.576-3.409-10.615-11.211
		C14.328,118.303,14.395,98.409,14.395,78.515z"/>
	<path fill-rule="evenodd" clip-rule="evenodd" fill="#F3433C" d="M669.046,134.007c-14.93,14.618-31.46,19.264-50.285,12.794
		c-20.597-7.079-32.851-29.145-30.359-53.49c2.201-21.5,19.237-39.931,39.83-43.087c32.743-5.019,57.615,14.899,59.415,48.101
		c0.702,12.98,0.338,26.023,0.241,39.037c-0.058,7.849-3.433,11.776-9.42,11.667c-5.63-0.101-8.669-3.861-9.165-11.34
		C669.244,136.794,669.179,135.9,669.046,134.007z"/>
	<path fill-rule="evenodd" clip-rule="evenodd" fill="#FEBB32" d="M251.013,134.1c-10.527,11.225-22.561,16.561-36.735,15.889
		c-20.533-0.973-35.755-13.383-41.95-33.506c-7.929-25.761,3.077-52.277,27.119-62.459c34.747-14.714,69.615,9.892,69.918,44.094
		c0.116,13.031,0.044,26.064,0.018,39.096c-0.017,8.572-2.964,12.469-9.215,12.328c-5.912-0.133-8.575-3.789-8.831-12.1
		C251.317,136.76,251.209,136.082,251.013,134.1z"/>
	<path fill-rule="evenodd" clip-rule="evenodd" fill="#4B81E6" d="M715.963,90.276c13.532-12.063,25.764-22.973,38.002-33.873
		c1.874-1.67,3.773-3.312,5.681-4.944c4.162-3.564,8.45-3.663,12.066,0.465c3.687,4.206,2.596,8.542-1.279,12.071
		c-8.774,7.992-17.386,16.209-26.658,23.587c-5.077,4.038-5.698,6.511-1.231,11.594c9.941,11.309,19.174,23.242,28.654,34.953
		c4.753,5.869,4.75,10.637,0.12,14.225c-4.375,3.389-8.98,2.408-13.479-3.104c-9.385-11.496-18.614-23.121-28.095-34.539
		c-1.572-1.893-3.057-6.271-5.451-4.799c-3.703,2.275-8.612,4.457-8.389,10.525c0.27,7.301,0.133,14.621,0.042,21.93
		c-0.09,7.1-3.033,10.482-8.881,10.49c-5.864,0.01-8.895-3.328-8.905-10.475c-0.063-39.983-0.07-79.966,0.007-119.949
		c0.013-6.908,3.396-10.583,9.016-10.54c5.509,0.042,8.723,3.778,8.749,10.8C716.017,41.956,715.963,65.22,715.963,90.276z"/>
	<path fill-rule="evenodd" clip-rule="evenodd" fill="#0AA758" d="M442.741,150.347c-28.89,0.104-49.995-20.981-50.188-50.142
		c-0.19-28.869,20.963-50.299,49.869-50.524c28.615-0.223,49.896,21.129,50.073,50.237
		C492.672,129.018,471.732,150.24,442.741,150.347z"/>
	<path fill-rule="evenodd" clip-rule="evenodd" fill="#FEBB32" d="M536.183,149.39c-8.26-0.071-20.22-2.429-30.838-9.521
		c-7.258-4.847-8.947-9.628-5.379-14.515c3.865-5.295,9.516-5.56,15.978-0.346c10.052,8.109,21.623,9.391,33.684,7.276
		c5.711-1.001,11.012-3.715,11.591-10.767c0.552-6.723-3.956-9.789-9.186-12.112c-6.512-2.891-13.587-3.835-20.438-5.53
		c-4.896-1.212-9.566-2.903-14.091-5.123c-9.388-4.606-15.253-11.826-15.301-22.462c-0.048-10.752,6.216-17.684,15.492-22.28
		c16.14-7.997,41.395-5.316,53.636,5.738c6.394,5.773,7.652,9.901,4.218,13.84c-3.372,3.87-8.766,3.89-14.724-0.847
		c-9.608-7.639-20.203-8.888-31.633-5.899c-4.61,1.207-8.918,3.361-9.131,8.834c-0.211,5.44,3.01,8.995,8.122,10.532
		c10.467,3.148,21.083,5.826,31.457,9.247c9.521,3.14,17.063,8.722,19.193,19.398c2.306,11.557-2.628,22.615-12.752,28.625
		C558.883,147.753,550.345,149.759,536.183,149.39z"/>
	<path fill-rule="evenodd" clip-rule="evenodd" fill="#F3433C" d="M125.337,69.305c0-16.451-0.043-32.903,0.02-49.354
		c0.03-7.909,2.674-11.268,8.642-11.396c6.29-0.135,9.339,3.437,9.355,11.551c0.066,30.846,0.004,61.692,0.063,92.538
		c0.006,3.17,0.199,6.401,0.834,9.495c1.181,5.754,4.387,9.342,10.846,9.209c6.077-0.123,9.685,3.27,9.684,9.146
		c-0.001,6.173-4.453,8.465-10.091,8.87c-15.854,1.138-28.354-10.716-28.971-28.66c-0.588-17.113-0.126-34.264-0.126-51.398
		C125.507,69.305,125.423,69.305,125.337,69.305z"/>
	<path fill-rule="evenodd" clip-rule="evenodd" fill="#FEFEFE" d="M300.176,108.306c-0.005-6.619,0.06-13.241-0.034-19.859
		c-0.04-2.844,0.313-4.92,3.947-4.798c13.441,0.451,26.931-0.95,40.333,0.843c13.51,1.81,20.996,9.696,21.521,22.342
		c0.502,12.098-7.507,22.123-20.371,24.452c-14.011,2.538-28.228,0.601-42.344,1.067c-3.024,0.099-3.053-2.037-3.051-4.188
		C300.185,121.546,300.18,114.926,300.176,108.306z"/>
	<path fill-rule="evenodd" clip-rule="evenodd" fill="#FEFEFE" d="M299.9,45.374c0.279-6.332-1.811-14.768,1.457-18.444
		c3.799-4.276,12.438-1.218,18.961-1.319c7.482-0.114,15.038-0.816,22.429,1.258c9.599,2.697,14.587,9.504,14.332,19.733
		c-0.254,10.145-5.582,16.861-15.48,18.755c-12.641,2.417-25.456,0.685-38.184,1.132c-2.923,0.103-3.255-1.745-3.242-4.01
		c0.031-5.699,0.01-11.396,0.01-17.096C300.088,45.382,299.995,45.378,299.9,45.374z"/>
	<path fill-rule="evenodd" clip-rule="evenodd" fill="#FEFEFE" d="M638.114,65.548c18.108,0.008,31.77,14.641,31.761,34.023
		c-0.007,19.392-13.65,33.82-31.958,33.795c-18.042-0.026-32.04-14.924-31.933-33.986C606.09,80.189,620.004,65.539,638.114,65.548z
		"/>
	<path fill-rule="evenodd" clip-rule="evenodd" fill="#FEFEFE" d="M251.602,100.594c-0.125,18.85-13.921,33.379-31.706,33.395
		c-18.013,0.014-32.054-14.855-32.024-33.91c0.03-19.613,14.043-34.277,32.528-34.039
		C238.435,66.271,251.733,80.999,251.602,100.594z"/>
	<path fill-rule="evenodd" clip-rule="evenodd" fill="#FEFEFE" d="M474.652,99.634c0.19,19.527-13.328,34.258-31.446,34.263
		c-18.946,0.006-32.811-14.251-32.827-33.754c-0.017-19.202,13.782-33.872,31.977-33.998
		C460.777,66.017,474.463,80.208,474.652,99.634z"/>
</g>
</svg>
