<?xml version="1.0" encoding="utf-8"?>
<!-- Generator: Adobe Illustrator 16.0.0, SVG Export Plug-In . SVG Version: 6.00 Build 0)  -->
<!DOCTYPE svg PUBLIC "-//W3C//DTD SVG 1.1//EN" "http://www.w3.org/Graphics/SVG/1.1/DTD/svg11.dtd">
<svg version="1.1" id="图层_1" xmlns="http://www.w3.org/2000/svg" xmlns:xlink="http://www.w3.org/1999/xlink" x="0px" y="0px"
	 width="782px" height="157px" viewBox="0 0 782 157" enable-background="new 0 0 782 157" xml:space="preserve">
<g>
	<path fill-rule="evenodd" clip-rule="evenodd" fill="#4B81E6" d="M12.372,77.903c0-19.438-0.052-38.874,0.024-58.311
		c0.033-8.459,3.148-11.973,11.413-11.999c25.834-0.081,51.672,0.001,77.504,0.308c8.389,0.1,11.388,2.81,11.333,8.621
		c-0.058,5.993-3.479,8.337-12.288,8.342c-20.351,0.013-40.711,0.34-61.049-0.183c-6.914-0.177-8.404,2.012-8.057,8.407
		c0.545,10.032,0.346,20.121,0.054,30.173c-0.13,4.457,1.219,5.896,5.751,5.818c14.859-0.254,29.726-0.122,44.589-0.071
		c5.24,0.017,9.621,1.517,10.392,7.602c0.76,6-2.998,9.71-10.243,9.779c-14.634,0.14-29.273,0.246-43.901-0.06
		c-4.957-0.104-6.833,1.02-6.625,6.369c0.428,10.96,0.45,21.96-0.005,32.917c-0.231,5.584,2.09,6.254,6.806,6.207
		c21.264-0.213,42.531-0.076,63.797-0.102c4.34-0.006,8.311,0.674,10.255,5.197c1.871,4.354-0.39,9.699-4.849,11.334
		c-1.687,0.617-3.579,0.951-5.376,0.947c-26.292-0.063-52.585-0.076-78.875-0.406c-7.691-0.094-10.576-3.408-10.615-11.211
		C12.304,117.691,12.372,97.797,12.372,77.903z"/>
	<path fill-rule="evenodd" clip-rule="evenodd" fill="#F3433C" d="M667.022,133.395c-14.93,14.619-31.46,19.264-50.285,12.795
		c-20.597-7.08-32.851-29.145-30.359-53.491c2.201-21.5,19.237-39.931,39.83-43.087c32.743-5.019,57.615,14.899,59.415,48.101
		c0.702,12.981,0.338,26.024,0.241,39.038c-0.058,7.848-3.433,11.775-9.42,11.666c-5.63-0.1-8.669-3.861-9.165-11.34
		C667.221,136.182,667.155,135.289,667.022,133.395z"/>
	<path fill-rule="evenodd" clip-rule="evenodd" fill="#FEBB32" d="M248.99,133.488c-10.527,11.225-22.561,16.561-36.735,15.889
		c-20.533-0.973-35.755-13.383-41.95-33.506c-7.929-25.762,3.077-52.277,27.119-62.459c34.747-14.714,69.615,9.892,69.918,44.094
		c0.116,13.032,0.044,26.065,0.018,39.096c-0.017,8.572-2.964,12.469-9.215,12.328c-5.912-0.133-8.575-3.789-8.831-12.1
		C249.294,136.148,249.186,135.471,248.99,133.488z"/>
	<path fill-rule="evenodd" clip-rule="evenodd" fill="#4B81E6" d="M713.939,89.664c13.532-12.063,25.764-22.973,38.002-33.873
		c1.874-1.67,3.773-3.312,5.681-4.944c4.162-3.564,8.45-3.663,12.066,0.465c3.687,4.206,2.596,8.542-1.279,12.071
		c-8.774,7.992-17.386,16.209-26.658,23.587c-5.077,4.038-5.698,6.511-1.231,11.594c9.941,11.309,19.174,23.243,28.654,34.954
		c4.753,5.869,4.75,10.637,0.12,14.225c-4.375,3.389-8.98,2.408-13.479-3.104c-9.385-11.496-18.614-23.121-28.095-34.539
		c-1.572-1.893-3.057-6.271-5.451-4.799c-3.703,2.275-8.612,4.457-8.389,10.525c0.27,7.301,0.133,14.621,0.042,21.93
		c-0.09,7.1-3.033,10.482-8.881,10.49c-5.864,0.01-8.895-3.328-8.905-10.475c-0.063-39.984-0.07-79.967,0.007-119.95
		c0.013-6.908,3.396-10.583,9.016-10.54c5.509,0.042,8.723,3.778,8.749,10.8C713.993,41.344,713.939,64.608,713.939,89.664z"/>
	<path fill-rule="evenodd" clip-rule="evenodd" fill="#0AA758" d="M440.718,149.734c-28.89,0.105-49.995-20.98-50.188-50.141
		c-0.19-28.87,20.963-50.3,49.869-50.525c28.615-0.223,49.896,21.129,50.073,50.238
		C490.648,128.406,469.709,149.629,440.718,149.734z"/>
	<path fill-rule="evenodd" clip-rule="evenodd" fill="#FEBB32" d="M534.159,148.777c-8.26-0.07-20.22-2.428-30.838-9.52
		c-7.258-4.848-8.947-9.629-5.379-14.516c3.865-5.295,9.516-5.559,15.978-0.346c10.052,8.109,21.623,9.391,33.684,7.277
		c5.711-1.002,11.012-3.715,11.591-10.768c0.552-6.723-3.956-9.789-9.186-12.111c-6.512-2.891-13.587-3.836-20.438-5.531
		c-4.896-1.211-9.566-2.902-14.091-5.122c-9.388-4.606-15.253-11.826-15.301-22.462c-0.048-10.752,6.216-17.684,15.492-22.28
		c16.14-7.997,41.395-5.316,53.636,5.738c6.394,5.773,7.652,9.901,4.218,13.84c-3.372,3.87-8.766,3.89-14.724-0.847
		c-9.608-7.639-20.203-8.888-31.633-5.899c-4.61,1.207-8.918,3.361-9.131,8.834c-0.211,5.44,3.01,8.995,8.122,10.532
		c10.467,3.148,21.083,5.826,31.457,9.247c9.521,3.14,17.063,8.722,19.193,19.397c2.306,11.557-2.628,22.615-12.752,28.625
		C556.859,147.141,548.321,149.146,534.159,148.777z"/>
	<path fill-rule="evenodd" clip-rule="evenodd" fill="#F3433C" d="M123.314,68.693c0-16.451-0.043-32.903,0.02-49.354
		c0.03-7.909,2.674-11.268,8.642-11.396c6.29-0.135,9.339,3.437,9.355,11.551c0.066,30.846,0.004,61.692,0.063,92.537
		c0.006,3.17,0.199,6.402,0.834,9.496c1.181,5.754,4.387,9.342,10.846,9.209c6.077-0.123,9.685,3.27,9.684,9.145
		c-0.001,6.174-4.453,8.465-10.091,8.871c-15.854,1.137-28.354-10.717-28.971-28.66c-0.588-17.113-0.126-34.264-0.126-51.399
		C123.484,68.693,123.399,68.693,123.314,68.693z"/>
	<path fill-rule="evenodd" clip-rule="evenodd" fill="#FEFEFE" d="M636.091,64.937c18.108,0.008,31.77,14.641,31.761,34.023
		c-0.007,19.392-13.65,33.82-31.958,33.794c-18.042-0.025-32.04-14.924-31.933-33.986C604.066,79.577,617.98,64.927,636.091,64.937z
		"/>
	<path fill-rule="evenodd" clip-rule="evenodd" fill="#FEFEFE" d="M249.579,99.982c-0.125,18.85-13.921,33.379-31.706,33.395
		c-18.013,0.014-32.054-14.855-32.024-33.91c0.03-19.613,14.043-34.278,32.528-34.039C236.411,65.659,249.709,80.387,249.579,99.982
		z"/>
	<path fill-rule="evenodd" clip-rule="evenodd" fill="#FEFEFE" d="M472.629,99.021c0.19,19.527-13.328,34.258-31.446,34.264
		c-18.946,0.006-32.811-14.252-32.827-33.754c-0.017-19.202,13.782-33.872,31.977-33.998
		C458.754,65.405,472.439,79.596,472.629,99.021z"/>
	<text transform="matrix(1 0 0 1 259.5796 149.7031)" fill="#4B81E6" font-family="'Comfortaa-Bold'" font-size="182.5293">B</text>
</g>
</svg>
