<?xml version="1.0" standalone="yes"?>
<svg xmlns="http://www.w3.org/2000/svg" width="538" height="532">
<path style="fill:#ffffff; stroke:none;" d="M0 0L0 532L538 532L538 0L0 0z"/>
<path style="fill:#bfd2f6; stroke:none;" d="M249 12C251.613 13.0977 254.165 12.9927 257 13C254.387 11.9023 251.836 12.0073 249 12z"/>
<path style="fill:#91b2f0; stroke:none;" d="M257 12C259.052 12.8743 260.747 12.9528 263 13C260.948 12.1257 259.253 12.0472 257 12z"/>
<path style="fill:#749dec; stroke:none;" d="M263 12C264.769 12.7789 266.036 12.9124 268 13C266.231 12.2211 264.964 12.0876 263 12z"/>
<path style="fill:#4b81e7; stroke:none;" d="M114 294L301 294L425 294C444.055 294 466.738 297.08 482.996 285.073C501.587 271.342 497.704 245.136 496.086 225C491.75 171.054 472.985 115.782 434.961 76C407.266 47.0257 371.082 27.044 332 18.4244C315.038 14.6835 298.242 13.7156 281 12.9606C220.796 10.3245 159.309 28.608 113 68.3001C69.4028 105.668 41.7547 160.437 33.8696 217C27.1607 265.126 30.4052 315.517 48.4498 361C55.762 379.431 65.4696 397.125 77.375 413C84.6518 422.703 92.3395 432.435 101.039 440.91C165.499 503.705 260.013 522.771 346 504.21C377.63 497.382 407.638 484.74 435 467.576C447.569 459.691 461.041 450.686 463.56 435C468.352 405.169 435.487 384.978 409 392.015C395.832 395.514 385.839 404.969 374 411.219C354.451 421.54 333.75 428.685 312 432.536C222.228 448.433 125.983 386.793 114 294z"/>
<path style="fill:#6c98eb; stroke:none;" d="M276 12C278.89 13.213 281.874 12.9982 285 13C282.11 11.787 279.126 12.0018 276 12z"/>
<path style="fill:#96b5f1; stroke:none;" d="M285 12C287.89 13.213 290.874 12.9982 294 13C291.11 11.787 288.126 12.0018 285 12z"/>
<path style="fill:#dae5fa; stroke:none;" d="M294.667 12.3333C294.222 12.7779 295.278 12.7222 295.333 12.6667C295.778 12.2222 294.722 12.2777 294.667 12.3333z"/>
<path style="fill:#ccdcf8; stroke:none;" d="M241 13C242.248 13.6848 242.548 13.7488 244 14C242.752 13.3151 242.452 13.2512 241 13z"/>
<path style="fill:#89acef; stroke:none;" d="M244.667 13.3333C244.222 13.7778 245.278 13.7222 245.333 13.6667C245.778 13.2222 244.722 13.2776 244.667 13.3333z"/>
<path style="fill:#739dec; stroke:none;" d="M298 13C299.248 13.6848 299.548 13.7488 301 14C299.752 13.3152 299.452 13.2512 298 13z"/>
<path style="fill:#acc5f4; stroke:none;" d="M301 13C302.248 13.6848 302.548 13.7488 304 14C302.752 13.3152 302.452 13.2512 301 13z"/>
<path style="fill:#ccdcf8; stroke:none;" d="M233 14C234.248 14.6848 234.548 14.7488 236 15C234.752 14.3152 234.452 14.2512 233 14z"/>
<path style="fill:#89acef; stroke:none;" d="M236.667 14.3333C236.222 14.7777 237.278 14.7223 237.333 14.6667C237.778 14.2221 236.722 14.2777 236.667 14.3333z"/>
<path style="fill:#7fa5ee; stroke:none;" d="M308.667 14.3333C308.222 14.7779 309.278 14.7222 309.333 14.6667C309.778 14.2223 308.722 14.2777 308.667 14.3333z"/>
<path style="fill:#a5c0f3; stroke:none;" d="M310 14C311.248 14.6848 311.548 14.7488 313 15C311.752 14.3152 311.452 14.2512 310 14z"/>
<path style="fill:#9fbcf2; stroke:none;" d="M227 15C228.248 15.6848 228.548 15.7488 230 16C228.752 15.3152 228.452 15.2512 227 15z"/>
<path style="fill:#89acef; stroke:none;" d="M315.667 15.3333C315.222 15.778 316.278 15.7221 316.333 15.6667C316.778 15.2223 315.722 15.2777 315.667 15.3333z"/>
<path style="fill:#c6d7f7; stroke:none;" d="M317.667 15.3333C317.222 15.778 318.278 15.7221 318.333 15.6667C318.778 15.2223 317.722 15.2777 317.667 15.3333z"/>
<path style="fill:#a4bff3; stroke:none;" d="M222.667 16.3333C222.222 16.7777 223.278 16.7223 223.333 16.6667C223.778 16.2221 222.722 16.2778 222.667 16.3333z"/>
<path style="fill:#8caef0; stroke:none;" d="M321.667 16.3333C321.222 16.778 322.278 16.7222 322.333 16.6667C322.778 16.2223 321.722 16.2777 321.667 16.3333z"/>
<path style="fill:#c8d9f8; stroke:none;" d="M323.667 16.3333C323.222 16.778 324.278 16.7222 324.333 16.6667C324.778 16.2223 323.722 16.2777 323.667 16.3333z"/>
<path style="fill:#acc5f4; stroke:none;" d="M217 17C218.248 17.6848 218.548 17.7488 220 18C218.752 17.3152 218.452 17.2512 217 17z"/>
<path style="fill:#8eb0f0; stroke:none;" d="M327 17C328.248 17.6848 328.548 17.7488 330 18C328.752 17.3152 328.452 17.2512 327 17z"/>
<path style="fill:#8fb1f0; stroke:none;" d="M213.667 18.3333C213.222 18.7778 214.278 18.7222 214.333 18.6667C214.778 18.222 213.722 18.2777 213.667 18.3333z"/>
<path style="fill:#bbd0f6; stroke:none;" d="M332.667 18.3333C332.222 18.778 333.278 18.7222 333.333 18.6667C333.778 18.2223 332.722 18.2776 332.667 18.3333z"/>
<path style="fill:#97b6f1; stroke:none;" d="M208 19C209.248 19.6848 209.548 19.7488 211 20C209.752 19.3152 209.452 19.2512 208 19z"/>
<path style="fill:#c3d5f7; stroke:none;" d="M336.667 19.3333C336.222 19.778 337.278 19.722 337.333 19.6667C337.778 19.2223 336.722 19.2776 336.667 19.3333z"/>
<path style="fill:#c7d8f8; stroke:none;" d="M340.667 20.3333C340.222 20.7777 341.278 20.7222 341.333 20.6667C341.778 20.2223 340.722 20.2778 340.667 20.3333z"/>
<path style="fill:#83a8ee; stroke:none;" d="M201.667 21.3333C201.222 21.778 202.278 21.7221 202.333 21.6667C202.778 21.2224 201.722 21.2777 201.667 21.3333z"/>
<path style="fill:#a3bef3; stroke:none;" d="M343 21C344.248 21.6848 344.548 21.7488 346 22C344.752 21.3152 344.452 21.2512 343 21z"/>
<path style="fill:#769fed; stroke:none;" d="M198.667 22.3333C198.222 22.7779 199.278 22.7221 199.333 22.6667C199.778 22.2224 198.722 22.2777 198.667 22.3333z"/>
<path style="fill:#c0d3f7; stroke:none;" d="M347.667 22.3333C347.222 22.7777 348.278 22.7222 348.333 22.6667C348.778 22.2223 347.722 22.2778 347.667 22.3333z"/>
<path style="fill:#9fbcf2; stroke:none;" d="M194.667 23.3333C194.222 23.778 195.278 23.7221 195.333 23.6667C195.778 23.2224 194.722 23.2777 194.667 23.3333z"/>
<path style="fill:#c3d5f7; stroke:none;" d="M350.667 23.3333C350.222 23.7778 351.278 23.7222 351.333 23.6667C351.778 23.2222 350.722 23.2778 350.667 23.3333z"/>
<path style="fill:#90b1f0; stroke:none;" d="M191.667 24.3333C191.222 24.7778 192.278 24.7222 192.333 24.6667C192.778 24.2224 191.722 24.2777 191.667 24.3333z"/>
<path style="fill:#c5d6f7; stroke:none;" d="M353.667 24.3333C353.222 24.7777 354.278 24.7223 354.333 24.6667C354.778 24.2222 353.722 24.2779 353.667 24.3333z"/>
<path style="fill:#81a7ee; stroke:none;" d="M188.667 25.3333C188.222 25.7779 189.278 25.7221 189.333 25.6667C189.778 25.2224 188.722 25.2777 188.667 25.3333z"/>
<path style="fill:#c7d8f8; stroke:none;" d="M356.667 25.3333C356.222 25.7777 357.278 25.7222 357.333 25.6667C357.778 25.2223 356.722 25.2778 356.667 25.3333z"/>
<path style="fill:#adc6f4; stroke:none;" d="M185 26L186 27L185 26z"/>
<path style="fill:#cadaf8; stroke:none;" d="M359.667 26.3333C359.222 26.7777 360.278 26.7223 360.333 26.6667C360.778 26.2223 359.722 26.2778 359.667 26.3333z"/>
<path style="fill:#91b2f0; stroke:none;" d="M183 27L184 28L183 27z"/>
<path style="fill:#98b7f1; stroke:none;" d="M362 27L363 28L362 27z"/>
<path style="fill:#b1c8f5; stroke:none;" d="M180 28L181 29L180 28z"/>
<path style="fill:#94b4f1; stroke:none;" d="M178 29L179 30L178 29z"/>
<path style="fill:#b5cbf5; stroke:none;" d="M367 29L368 30L367 29M175 30L176 31L175 30z"/>
<path style="fill:#a5c0f3; stroke:none;" d="M369 30L370 31L369 30z"/>
<path style="fill:#98b7f1; stroke:none;" d="M173 31L174 32L173 31z"/>
<path style="fill:#95b5f1; stroke:none;" d="M371 31L372 32L371 31z"/>
<path style="fill:#b8cef6; stroke:none;" d="M170 32L171 33L170 32z"/>
<path style="fill:#9cbaf2; stroke:none;" d="M168 33L169 34L168 33z"/>
<path style="fill:#b5cbf5; stroke:none;" d="M376 33L377 34L376 33z"/>
<path style="fill:#a5c0f3; stroke:none;" d="M378 34L379 35L378 34z"/>
<path style="fill:#87abef; stroke:none;" d="M164 35L165 36L164 35z"/>
<path style="fill:#b1c8f5; stroke:none;" d="M380 35L381 36L380 35z"/>
<path style="fill:#8daff0; stroke:none;" d="M162 36L163 37L162 36z"/>
<path style="fill:#bdd1f6; stroke:none;" d="M382 36L383 37L382 36z"/>
<path style="fill:#92b3f1; stroke:none;" d="M160 37L161 38L160 37z"/>
<path style="fill:#98b7f1; stroke:none;" d="M158 38L159 39L158 38z"/>
<path style="fill:#88acef; stroke:none;" d="M385 38L386 39L385 38z"/>
<path style="fill:#9ebbf2; stroke:none;" d="M156 39L157 40L156 39z"/>
<path style="fill:#94b4f1; stroke:none;" d="M387 39L388 40L387 39z"/>
<path style="fill:#a4bff3; stroke:none;" d="M154 40L155 41L154 40z"/>
<path style="fill:#a0bdf2; stroke:none;" d="M389 40L390 41L389 40z"/>
<path style="fill:#a9c3f4; stroke:none;" d="M152 41L153 42L152 41z"/>
<path style="fill:#acc5f4; stroke:none;" d="M391 41L392 42L391 41z"/>
<path style="fill:#afc7f4; stroke:none;" d="M150 42L151 43L150 42z"/>
<path style="fill:#bcd0f6; stroke:none;" d="M393 42L394 43L393 42z"/>
<path style="fill:#b5cbf5; stroke:none;" d="M148 43L149 44L148 43z"/>
<path style="fill:#92b3f0; stroke:none;" d="M394 43L395 44L394 43z"/>
<path style="fill:#9bb9f2; stroke:none;" d="M145 45L146 46L145 45M397 45L398 46L397 45z"/>
<path style="fill:#bfd3f7; stroke:none;" d="M143 46L144 47L143 46z"/>
<path style="fill:#8daff0; stroke:none;" d="M142 47L143 48L142 47z"/>
<path style="fill:#a3bff3; stroke:none;" d="M400 47L401 48L400 47z"/>
<path style="fill:#b2c9f5; stroke:none;" d="M140 48L141 49L140 48z"/>
<path style="fill:#abc4f4; stroke:none;" d="M403 49L404 50L403 49z"/>
<path style="fill:#a5c0f3; stroke:none;" d="M137 50L138 51L137 50z"/>
<path style="fill:#b4caf5; stroke:none;" d="M406 51L407 52L406 51z"/>
<path style="fill:#97b6f1; stroke:none;" d="M134 52L135 53L134 52z"/>
<path style="fill:#8aadef; stroke:none;" d="M407 52L408 53L407 52z"/>
<path style="fill:#bcd0f6; stroke:none;" d="M132 53L133 54L132 53z"/>
<path style="fill:#bfd2f6; stroke:none;" d="M409 53L410 54L409 53z"/>
<path style="fill:#8aadef; stroke:none;" d="M131 54L132 55L131 54z"/>
<path style="fill:#a5c0f3; stroke:none;" d="M410 54L411 55L410 54z"/>
<path style="fill:#b7ccf5; stroke:none;" d="M129 55L130 56L129 55z"/>
<path style="fill:#8baef0; stroke:none;" d="M411 55L412 56L411 55z"/>
<path style="fill:#99b8f1; stroke:none;" d="M128 56L129 57L128 56z"/>
<path style="fill:#bfd2f6; stroke:none;" d="M414 57L415 58L414 57z"/>
<path style="fill:#c3d5f7; stroke:none;" d="M125 58L126 59L125 58z"/>
<path style="fill:#a5c0f3; stroke:none;" d="M415 58L416 59L415 58M124 59L125 60L124 59z"/>
<path style="fill:#8baef0; stroke:none;" d="M416 59L417 60L416 59z"/>
<path style="fill:#87abef; stroke:none;" d="M123 60L124 61L123 60z"/>
<path style="fill:#b1c8f5; stroke:none;" d="M120 62L121 63L120 62z"/>
<path style="fill:#bed1f6; stroke:none;" d="M420 62L421 63L420 62z"/>
<path style="fill:#93b4f1; stroke:none;" d="M119 63L120 64L119 63z"/>
<path style="fill:#9dbaf2; stroke:none;" d="M421 63L422 64L421 63z"/>
<path style="fill:#bdd1f6; stroke:none;" d="M116 65L117 66L116 65z"/>
<path style="fill:#9fbcf2; stroke:none;" d="M115 66L116 67L115 66z"/>
<path style="fill:#c2d4f7; stroke:none;" d="M109 71L110 72L109 71z"/>
<path style="fill:#b9cef6; stroke:none;" d="M108 72L109 73L108 72z"/>
<path style="fill:#b1c9f5; stroke:none;" d="M107 73L108 74L107 73z"/>
<path style="fill:#a9c3f4; stroke:none;" d="M106 74L107 75L106 74z"/>
<path style="fill:#a2bef3; stroke:none;" d="M105 75L106 76L105 75z"/>
<path style="fill:#9cbaf2; stroke:none;" d="M104 76L105 77L104 76z"/>
<path style="fill:#96b5f1; stroke:none;" d="M103 77L104 78L103 77z"/>
<path style="fill:#90b1f0; stroke:none;" d="M102 78L103 79L102 78z"/>
<path style="fill:#8aadef; stroke:none;" d="M101 79L102 80L101 79z"/>
<path style="fill:#9bb9f2; stroke:none;" d="M439 81L440 82L439 81z"/>
<path style="fill:#c3d5f7; stroke:none;" d="M440 82L441 83L440 82z"/>
<path style="fill:#94b4f1; stroke:none;" d="M97 83L98 84L97 83z"/>
<path style="fill:#adc5f4; stroke:none;" d="M96 84L97 85L96 84z"/>
<path style="fill:#9bb9f2; stroke:none;" d="M443 86L444 87L443 86z"/>
<path style="fill:#b5cbf5; stroke:none;" d="M444 87L445 88L444 87z"/>
<path style="fill:#9ebbf2; stroke:none;" d="M265 89C268.432 90.4403 272.3 90 276 90C272.568 88.5597 268.7 89 265 89z"/>
<path style="fill:#749eec; stroke:none;" d="M276 89C277.769 89.7789 279.036 89.9124 281 90C279.231 89.2211 277.964 89.0876 276 89z"/>
<path style="fill:#89acef; stroke:none;" d="M250 90C251.248 90.6848 251.548 90.7488 253 91C251.752 90.3152 251.452 90.2512 250 90z"/>
<path style="fill:#dde7fa; stroke:none;" d="M253 90C254.769 90.7789 256.036 90.9124 258 91C256.231 90.2211 254.964 90.0876 253 90z"/>
<path style="fill:#ffffff; stroke:none;" d="M115 221L414 221C413.74 208.401 409.558 195.872 405.67 184C395.469 152.85 375.321 125.028 347 107.926C329.571 97.4014 309.988 92.8295 290 90.831C257.519 87.5833 223.381 92.1086 194 106.809C161.369 123.134 136.49 154.115 123.951 188C120.004 198.666 117.844 210.014 115 221z"/>
<path style="fill:#dee8fb; stroke:none;" d="M287 90C288.248 90.6848 288.548 90.7488 290 91C288.752 90.3152 288.451 90.2512 287 90z"/>
<path style="fill:#afc7f4; stroke:none;" d="M290 90C291.248 90.6848 291.548 90.7488 293 91C291.752 90.3152 291.452 90.2512 290 90z"/>
<path style="fill:#98b7f1; stroke:none;" d="M90 91L91 92L90 91z"/>
<path style="fill:#81a7ee; stroke:none;" d="M241.667 91.3333C241.222 91.7779 242.278 91.7222 242.333 91.6667C242.778 91.2224 241.722 91.2777 241.667 91.3333z"/>
<path style="fill:#abc4f4; stroke:none;" d="M243.667 91.3333C243.222 91.7779 244.278 91.7221 244.333 91.6667C244.778 91.2224 243.722 91.2777 243.667 91.3333z"/>
<path style="fill:#d5e1f9; stroke:none;" d="M245 91C246.248 91.6848 246.548 91.7488 248 92C246.752 91.3152 246.452 91.2512 245 91z"/>
<path style="fill:#c1d3f7; stroke:none;" d="M297.667 91.3333C297.222 91.7777 298.278 91.7222 298.333 91.6667C298.778 91.2222 297.722 91.2778 297.667 91.3333z"/>
<path style="fill:#92b3f0; stroke:none;" d="M299 91C300.248 91.6848 300.548 91.7488 302 92C300.752 91.3152 300.452 91.2512 299 91z"/>
<path style="fill:#8badef; stroke:none;" d="M447 91L448 92L447 91z"/>
<path style="fill:#a4bff3; stroke:none;" d="M89 92L90 93L89 92z"/>
<path style="fill:#9fbcf2; stroke:none;" d="M235.667 92.3333C235.222 92.7779 236.278 92.722 236.333 92.6667C236.778 92.2224 235.722 92.2776 235.667 92.3333z"/>
<path style="fill:#a5c0f3; stroke:none;" d="M305.667 92.3333C305.222 92.7777 306.278 92.7222 306.333 92.6667C306.778 92.2222 305.722 92.2778 305.667 92.3333z"/>
<path style="fill:#a0bcf2; stroke:none;" d="M448 92L449 93L448 92z"/>
<path style="fill:#b0c8f4; stroke:none;" d="M88 93L89 94L88 93z"/>
<path style="fill:#afc7f4; stroke:none;" d="M231.667 93.3333C231.222 93.7779 232.278 93.7221 232.333 93.6667C232.778 93.2224 231.722 93.2777 231.667 93.3333z"/>
<path style="fill:#a5c0f3; stroke:none;" d="M309.667 93.3333C309.222 93.7777 310.278 93.7222 310.333 93.6667C310.778 93.2223 309.722 93.2778 309.667 93.3333z"/>
<path style="fill:#b5cbf5; stroke:none;" d="M449 93L450 94L449 93z"/>
<path style="fill:#bcd0f6; stroke:none;" d="M87 94L88 95L87 94M227.667 94.3333C227.222 94.7779 228.278 94.7221 228.333 94.6667C228.778 94.2224 227.722 94.2777 227.667 94.3333z"/>
<path style="fill:#a3bff3; stroke:none;" d="M313 94C314.248 94.6848 314.548 94.7488 316 95C314.752 94.3152 314.452 94.2512 313 94z"/>
<path style="fill:#a0bcf2; stroke:none;" d="M222.667 95.3333C222.222 95.7779 223.278 95.7221 223.333 95.6667C223.778 95.2224 222.722 95.2777 222.667 95.3333z"/>
<path style="fill:#9dbbf2; stroke:none;" d="M317 95C318.248 95.6848 318.548 95.7488 320 96C318.752 95.3152 318.452 95.2512 317 95z"/>
<path style="fill:#bdd1f6; stroke:none;" d="M219.667 96.3333C219.222 96.7779 220.278 96.7221 220.333 96.6667C220.778 96.2224 219.722 96.2777 219.667 96.3333z"/>
<path style="fill:#6f9aec; stroke:none;" d="M321.667 96.3333C321.222 96.7777 322.278 96.7222 322.333 96.6667C322.778 96.2222 321.722 96.2778 321.667 96.3333z"/>
<path style="fill:#a2bef3; stroke:none;" d="M451 96L452 97L451 96z"/>
<path style="fill:#b8cdf6; stroke:none;" d="M216.667 97.3333C216.222 97.7779 217.278 97.7221 217.333 97.6667C217.778 97.2224 216.722 97.2777 216.667 97.3333z"/>
<path style="fill:#7ca4ee; stroke:none;" d="M326.667 98.3333C326.222 98.7776 327.278 98.7223 327.333 98.6667C327.778 98.2222 326.722 98.2779 326.667 98.3333z"/>
<path style="fill:#a0bdf2; stroke:none;" d="M83 99L84 100L83 99z"/>
<path style="fill:#9ebbf2; stroke:none;" d="M453 99L454 100L453 99z"/>
<path style="fill:#c3d5f7; stroke:none;" d="M82 100L83 101L82 100z"/>
<path style="fill:#dee8fb; stroke:none;" d="M208.667 100.333C208.222 100.778 209.278 100.722 209.333 100.667C209.778 100.222 208.722 100.278 208.667 100.333z"/>
<path style="fill:#8aadef; stroke:none;" d="M331.667 100.333C331.222 100.778 332.278 100.722 332.333 100.667C332.778 100.222 331.722 100.278 331.667 100.333z"/>
<path style="fill:#97b7f1; stroke:none;" d="M205 101L206 102L205 101z"/>
<path style="fill:#a4c0f3; stroke:none;" d="M334 101L335 102L334 101M203 102L204 103L203 102z"/>
<path style="fill:#a1bef3; stroke:none;" d="M336 102L337 103L336 102z"/>
<path style="fill:#9ab8f1; stroke:none;" d="M455 102L456 103L455 102z"/>
<path style="fill:#a8c2f3; stroke:none;" d="M80 103L81 104L80 103z"/>
<path style="fill:#b1c9f5; stroke:none;" d="M201 103L202 104L201 103z"/>
<path style="fill:#9fbcf2; stroke:none;" d="M338 103L339 104L338 103z"/>
<path style="fill:#bed2f6; stroke:none;" d="M199 104L200 105L199 104z"/>
<path style="fill:#9cbaf2; stroke:none;" d="M340 104L341 105L340 104z"/>
<path style="fill:#88acef; stroke:none;" d="M196 105L197 106L196 105z"/>
<path style="fill:#99b8f1; stroke:none;" d="M342 105L343 106L342 105z"/>
<path style="fill:#95b5f1; stroke:none;" d="M457 105L458 106L457 105z"/>
<path style="fill:#8daff0; stroke:none;" d="M78 106L79 107L78 106z"/>
<path style="fill:#95b5f1; stroke:none;" d="M194 106L195 107L194 106z"/>
<path style="fill:#96b6f1; stroke:none;" d="M344 106L345 107L344 106z"/>
<path style="fill:#c1d4f7; stroke:none;" d="M458 106L459 107L458 106z"/>
<path style="fill:#b0c7f4; stroke:none;" d="M77 107L78 108L77 107z"/>
<path style="fill:#a2bef3; stroke:none;" d="M192 107L193 108L192 107z"/>
<path style="fill:#93b4f1; stroke:none;" d="M346 107L347 108L346 107z"/>
<path style="fill:#8caef0; stroke:none;" d="M190 108L191 109L190 108z"/>
<path style="fill:#91b2f0; stroke:none;" d="M459 108L460 109L459 108z"/>
<path style="fill:#c0d3f7; stroke:none;" d="M189 109L190 110L189 109z"/>
<path style="fill:#92b3f0; stroke:none;" d="M349 109L350 110L349 109z"/>
<path style="fill:#bdd1f6; stroke:none;" d="M460 109L461 110L460 109z"/>
<path style="fill:#95b4f1; stroke:none;" d="M75 110L76 111L75 110z"/>
<path style="fill:#9ebbf2; stroke:none;" d="M187 110L188 111L187 110z"/>
<path style="fill:#bcd0f6; stroke:none;" d="M350 110L351 111L350 110z"/>
<path style="fill:#b7cdf5; stroke:none;" d="M74 111L75 112L74 111z"/>
<path style="fill:#8aadef; stroke:none;" d="M352 111L353 112L352 111z"/>
<path style="fill:#9ebbf2; stroke:none;" d="M461 111L462 112L461 111z"/>
<path style="fill:#b0c8f4; stroke:none;" d="M184 112L185 113L184 112z"/>
<path style="fill:#b4caf5; stroke:none;" d="M353 112L354 113L353 112z"/>
<path style="fill:#8eb0f0; stroke:none;" d="M182 113L183 114L182 113z"/>
<path style="fill:#90b1f0; stroke:none;" d="M462 113L463 114L462 113z"/>
<path style="fill:#9cbaf2; stroke:none;" d="M72 114L73 115L72 114z"/>
<path style="fill:#c2d4f7; stroke:none;" d="M181 114L182 115L181 114z"/>
<path style="fill:#abc4f4; stroke:none;" d="M356 114L357 115L356 114z"/>
<path style="fill:#a0bdf2; stroke:none;" d="M179 115L180 116L179 115z"/>
<path style="fill:#90b2f0; stroke:none;" d="M359 116L360 117L359 116z"/>
<path style="fill:#c2d4f7; stroke:none;" d="M464 116L465 117L464 116z"/>
<path style="fill:#b2c9f5; stroke:none;" d="M70 117L71 118L70 117z"/>
<path style="fill:#9fbcf2; stroke:none;" d="M360 117L361 118L360 117z"/>
<path style="fill:#9cb9f2; stroke:none;" d="M175 118L176 119L175 118z"/>
<path style="fill:#adc5f4; stroke:none;" d="M361 118L362 119L361 118z"/>
<path style="fill:#b4caf5; stroke:none;" d="M465 118L466 119L465 118z"/>
<path style="fill:#95b5f1; stroke:none;" d="M69 119L70 120L69 119z"/>
<path style="fill:#b6ccf5; stroke:none;" d="M174 119L175 120L174 119z"/>
<path style="fill:#bbcff6; stroke:none;" d="M362 119L363 120L362 119z"/>
<path style="fill:#a6c1f3; stroke:none;" d="M466 120L467 121L466 120z"/>
<path style="fill:#b0c8f4; stroke:none;" d="M67 122L68 123L67 122z"/>
<path style="fill:#a1bdf2; stroke:none;" d="M170 122L171 123L170 122z"/>
<path style="fill:#98b7f1; stroke:none;" d="M467 122L468 123L467 122z"/>
<path style="fill:#bcd0f6; stroke:none;" d="M169 123L170 124L169 123z"/>
<path style="fill:#90b1f0; stroke:none;" d="M367 123L368 124L367 123z"/>
<path style="fill:#93b4f1; stroke:none;" d="M66 124L67 125L66 124z"/>
<path style="fill:#afc7f4; stroke:none;" d="M368 124L369 125L368 124z"/>
<path style="fill:#8aadef; stroke:none;" d="M468 124L469 125L468 124z"/>
<path style="fill:#87abef; stroke:none;" d="M166 125L167 126L166 125z"/>
<path style="fill:#8aadef; stroke:none;" d="M165 126L166 127L165 126z"/>
<path style="fill:#aec6f4; stroke:none;" d="M64 127L65 128L64 127z"/>
<path style="fill:#8daff0; stroke:none;" d="M164 127L165 128L164 127z"/>
<path style="fill:#c2d4f7; stroke:none;" d="M371 127L372 128L371 127z"/>
<path style="fill:#bcd0f6; stroke:none;" d="M470 127L471 128L470 127z"/>
<path style="fill:#90b1f0; stroke:none;" d="M163 128L164 129L163 128z"/>
<path style="fill:#b9cef6; stroke:none;" d="M372 128L373 129L372 128z"/>
<path style="fill:#92b2f0; stroke:none;" d="M63 129L64 130L63 129z"/>
<path style="fill:#92b3f0; stroke:none;" d="M162 129L163 130L162 129z"/>
<path style="fill:#b1c8f5; stroke:none;" d="M373 129L374 130L373 129z"/>
<path style="fill:#c3d5f7; stroke:none;" d="M471 129L472 130L471 129z"/>
<path style="fill:#95b5f1; stroke:none;" d="M161 130L162 131L161 130z"/>
<path style="fill:#a8c2f3; stroke:none;" d="M374 130L375 131L374 130z"/>
<path style="fill:#98b7f1; stroke:none;" d="M160 131L161 132L160 131z"/>
<path style="fill:#9ebbf2; stroke:none;" d="M375 131L376 132L375 131z"/>
<path style="fill:#acc5f4; stroke:none;" d="M61 132L62 133L61 132z"/>
<path style="fill:#a2bef3; stroke:none;" d="M159 132L160 133L159 132z"/>
<path style="fill:#92b3f1; stroke:none;" d="M376 132L377 133L376 132z"/>
<path style="fill:#93b4f1; stroke:none;" d="M472 132L473 133L472 132z"/>
<path style="fill:#aec7f4; stroke:none;" d="M158 133L159 134L158 133z"/>
<path style="fill:#87abef; stroke:none;" d="M377 133L378 134L377 133z"/>
<path style="fill:#a8c2f3; stroke:none;" d="M60 134L61 135L60 134z"/>
<path style="fill:#bbcff6; stroke:none;" d="M157 134L158 135L157 134z"/>
<path style="fill:#a5c0f3; stroke:none;" d="M473 134L474 135L473 134z"/>
<path style="fill:#abc5f4; stroke:none;" d="M59 136L60 137L59 136z"/>
<path style="fill:#b7ccf5; stroke:none;" d="M474 136L475 137L474 136z"/>
<path style="fill:#b1c9f5; stroke:none;" d="M154 137L155 138L154 137z"/>
<path style="fill:#bdd1f6; stroke:none;" d="M380 137L381 138L380 137z"/>
<path style="fill:#afc7f4; stroke:none;" d="M58 138L59 139L58 138z"/>
<path style="fill:#94b4f1; stroke:none;" d="M153 138L154 139L153 138z"/>
<path style="fill:#9bb9f2; stroke:none;" d="M381 138L382 139L381 138z"/>
<path style="fill:#87abef; stroke:none;" d="M475 139L476 140L475 139z"/>
<path style="fill:#b3caf5; stroke:none;" d="M57 140L58 141L57 140z"/>
<path style="fill:#bacff6; stroke:none;" d="M383 141L384 142L383 141z"/>
<path style="fill:#99b8f1; stroke:none;" d="M476 141L477 142L476 141z"/>
<path style="fill:#b7ccf5; stroke:none;" d="M56 142L57 143L56 142z"/>
<path style="fill:#98b7f1; stroke:none;" d="M384 142L385 143L384 142z"/>
<path style="fill:#b3caf5; stroke:none;" d="M149 143L150 144L149 143z"/>
<path style="fill:#abc4f4; stroke:none;" d="M477 143L478 144L477 143z"/>
<path style="fill:#bacff6; stroke:none;" d="M55 144L56 145L55 144z"/>
<path style="fill:#9bb9f2; stroke:none;" d="M148 144L149 145L148 144z"/>
<path style="fill:#b7cdf5; stroke:none;" d="M386 145L387 146L386 145z"/>
<path style="fill:#bdd1f6; stroke:none;" d="M478 145L479 146L478 145z"/>
<path style="fill:#bed2f6; stroke:none;" d="M54 146L55 147L54 146z"/>
<path style="fill:#96b5f1; stroke:none;" d="M387 146L388 147L387 146z"/>
<path style="fill:#c2d4f7; stroke:none;" d="M53 148L54 149L53 148z"/>
<path style="fill:#b1c9f5; stroke:none;" d="M145 148L146 149L145 148z"/>
<path style="fill:#6d99ec; stroke:none;" d="M479.333 148.667C479.278 148.722 479.222 149.778 479.667 149.333C479.722 149.278 479.778 148.222 479.333 148.667z"/>
<path style="fill:#87abef; stroke:none;" d="M144 149L145 150L144 149z"/>
<path style="fill:#99b7f1; stroke:none;" d="M389 149L390 150L389 149z"/>
<path style="fill:#b9cef6; stroke:none;" d="M143 151L144 152L143 151z"/>
<path style="fill:#b7ccf5; stroke:none;" d="M390 151L391 152L390 151z"/>
<path style="fill:#8fb1f0; stroke:none;" d="M142 152L143 153L142 152z"/>
<path style="fill:#c1d4f7; stroke:none;" d="M141 154L142 155L141 154z"/>
<path style="fill:#9ebbf2; stroke:none;" d="M392 154L393 155L392 154z"/>
<path style="fill:#7da4ee; stroke:none;" d="M50.3333 155.667C50.2778 155.722 50.2222 156.778 50.6667 156.333C50.7222 156.278 50.7778 155.222 50.3333 155.667z"/>
<path style="fill:#97b6f1; stroke:none;" d="M140 155L141 156L140 155z"/>
<path style="fill:#bcd0f6; stroke:none;" d="M393 156L394 157L393 156z"/>
<path style="fill:#90b2f0; stroke:none;" d="M482.333 156.667C482.278 156.722 482.222 157.778 482.667 157.333C482.722 157.278 482.778 156.222 482.333 156.667z"/>
<path style="fill:#9fbcf2; stroke:none;" d="M138 158L139 159L138 158z"/>
<path style="fill:#a4bff3; stroke:none;" d="M395 159L396 160L395 159z"/>
<path style="fill:#8aadef; stroke:none;" d="M483.333 159.667C483.278 159.722 483.222 160.778 483.667 160.333C483.722 160.278 483.778 159.222 483.333 159.667z"/>
<path style="fill:#96b6f1; stroke:none;" d="M136 161L137 162L136 161z"/>
<path style="fill:#b2c9f5; stroke:none;" d="M396 161L397 162L396 161z"/>
<path style="fill:#85a9ef; stroke:none;" d="M484.333 162.667C484.278 162.722 484.222 163.778 484.667 163.333C484.722 163.278 484.778 162.222 484.333 162.667z"/>
<path style="fill:#7aa2ed; stroke:none;" d="M47.3333 163.667C47.2778 163.722 47.2223 164.778 47.6667 164.333C47.7222 164.278 47.7778 163.222 47.3333 163.667z"/>
<path style="fill:#9ebbf2; stroke:none;" d="M135 163L136 164L135 163z"/>
<path style="fill:#a5c0f3; stroke:none;" d="M397 163L398 164L397 163z"/>
<path style="fill:#a6c0f3; stroke:none;" d="M134 165L135 166L134 165z"/>
<path style="fill:#98b7f1; stroke:none;" d="M398 165L399 166L398 165z"/>
<path style="fill:#7fa5ee; stroke:none;" d="M485.333 165.667C485.278 165.722 485.222 166.778 485.667 166.333C485.722 166.278 485.778 165.222 485.333 165.667z"/>
<path style="fill:#adc6f4; stroke:none;" d="M133 167L134 168L133 167z"/>
<path style="fill:#8aadef; stroke:none;" d="M399 167L400 168L399 167M45.3333 168.667C45.2778 168.722 45.2222 169.778 45.6667 169.333C45.7222 169.278 45.7778 168.222 45.3333 168.667z"/>
<path style="fill:#a2bef3; stroke:none;" d="M486.333 168.667C486.278 168.722 486.222 169.778 486.667 169.333C486.722 169.278 486.778 168.222 486.333 168.667z"/>
<path style="fill:#b5cbf5; stroke:none;" d="M132 169L133 170L132 169z"/>
<path style="fill:#c0d3f7; stroke:none;" d="M400 170L401 171L400 170z"/>
<path style="fill:#769fed; stroke:none;" d="M44.3333 171.667C44.2778 171.722 44.2222 172.778 44.6667 172.333C44.7222 172.278 44.7778 171.222 44.3333 171.667z"/>
<path style="fill:#bdd1f6; stroke:none;" d="M131 171L132 172L131 171z"/>
<path style="fill:#b2c9f5; stroke:none;" d="M401 172L402 173L401 172z"/>
<path style="fill:#9ebbf2; stroke:none;" d="M487 172L487 175C487.696 173.446 487.696 173.554 487 172z"/>
<path style="fill:#82a7ee; stroke:none;" d="M43.3333 174.667C43.2778 174.722 43.2222 175.778 43.6667 175.333C43.7223 175.278 43.7778 174.222 43.3333 174.667z"/>
<path style="fill:#dbe6fa; stroke:none;" d="M402.333 174.667C402.278 174.722 402.222 175.778 402.667 175.333C402.722 175.278 402.778 174.222 402.333 174.667z"/>
<path style="fill:#bfd2f6; stroke:none;" d="M129 175L130 176L129 175z"/>
<path style="fill:#9ab9f2; stroke:none;" d="M488.333 176.667C488.278 176.722 488.222 177.778 488.667 177.333C488.722 177.278 488.778 176.222 488.333 176.667z"/>
<path style="fill:#97b6f1; stroke:none;" d="M42.3333 177.667C42.2778 177.722 42.2222 178.778 42.6667 178.333C42.7223 178.278 42.7778 177.222 42.3333 177.667z"/>
<path style="fill:#a8c2f3; stroke:none;" d="M128 177L129 178L128 177z"/>
<path style="fill:#91b2f0; stroke:none;" d="M127 179L128 180L127 179z"/>
<path style="fill:#bacff6; stroke:none;" d="M404.333 179.667C404.278 179.722 404.222 180.778 404.667 180.333C404.722 180.278 404.778 179.222 404.333 179.667z"/>
<path style="fill:#9ab8f1; stroke:none;" d="M489.333 180.667C489.278 180.722 489.222 181.778 489.667 181.333C489.722 181.278 489.778 180.222 489.333 180.667z"/>
<path style="fill:#7ea5ee; stroke:none;" d="M41.3333 181.667C41.2778 181.722 41.2223 182.778 41.6667 182.333C41.7222 182.278 41.7778 181.222 41.3333 181.667z"/>
<path style="fill:#bacff6; stroke:none;" d="M126 182L127 183L126 182z"/>
<path style="fill:#c4d6f7; stroke:none;" d="M405.333 182.667C405.278 182.722 405.222 183.778 405.667 183.333C405.722 183.278 405.778 182.222 405.333 182.667z"/>
<path style="fill:#93b3f1; stroke:none;" d="M40.3333 184.667C40.2778 184.722 40.2222 185.778 40.6667 185.333C40.7222 185.278 40.7778 184.222 40.3333 184.667z"/>
<path style="fill:#a3bff3; stroke:none;" d="M125 184L126 185L125 184z"/>
<path style="fill:#9ab8f1; stroke:none;" d="M490.333 184.667C490.278 184.722 490.222 185.778 490.667 185.333C490.722 185.278 490.778 184.222 490.333 184.667z"/>
<path style="fill:#ceddf9; stroke:none;" d="M406.333 185.667C406.278 185.722 406.222 186.778 406.667 186.333C406.722 186.278 406.778 185.222 406.333 185.667z"/>
<path style="fill:#8caff0; stroke:none;" d="M124 186L125 187L124 186z"/>
<path style="fill:#7ca3ed; stroke:none;" d="M39.3333 188.667C39.2777 188.722 39.2223 189.778 39.6667 189.333C39.7222 189.278 39.7778 188.222 39.3333 188.667z"/>
<path style="fill:#d7e3fa; stroke:none;" d="M407.333 188.667C407.278 188.722 407.222 189.778 407.667 189.333C407.722 189.278 407.778 188.222 407.333 188.667z"/>
<path style="fill:#b8cef6; stroke:none;" d="M491.333 188.667C491.278 188.722 491.222 189.778 491.667 189.333C491.722 189.278 491.778 188.222 491.333 188.667z"/>
<path style="fill:#7aa2ed; stroke:none;" d="M491.333 190.667C491.278 190.722 491.222 191.778 491.667 191.333C491.722 191.278 491.778 190.222 491.333 190.667z"/>
<path style="fill:#97b6f1; stroke:none;" d="M38.3333 191.667C38.2778 191.722 38.2222 192.778 38.6667 192.333C38.7222 192.278 38.7778 191.222 38.3333 191.667z"/>
<path style="fill:#b7cdf5; stroke:none;" d="M408.333 191.667C408.278 191.722 408.222 192.778 408.667 192.333C408.722 192.278 408.778 191.222 408.333 191.667z"/>
<path style="fill:#dbe6fa; stroke:none;" d="M122.333 192.667C122.278 192.722 122.222 193.778 122.667 193.333C122.722 193.278 122.778 192.222 122.333 192.667z"/>
<path style="fill:#b0c8f4; stroke:none;" d="M492 194L492 197C492.696 195.446 492.696 195.554 492 194z"/>
<path style="fill:#a3bff3; stroke:none;" d="M37 195L37 198C37.6961 196.446 37.6961 196.554 37 195z"/>
<path style="fill:#d4e1f9; stroke:none;" d="M121.333 195.667C121.278 195.722 121.222 196.778 121.667 196.333C121.722 196.278 121.778 195.222 121.333 195.667z"/>
<path style="fill:#c3d5f7; stroke:none;" d="M409.333 195.667C409.278 195.722 409.222 196.778 409.667 196.333C409.722 196.278 409.778 195.222 409.333 195.667z"/>
<path style="fill:#ccdcf8; stroke:none;" d="M120.333 198.667C120.278 198.722 120.222 199.778 120.667 199.333C120.722 199.278 120.778 198.222 120.333 198.667z"/>
<path style="fill:#d5e2f9; stroke:none;" d="M410.333 199.667C410.278 199.722 410.222 200.778 410.667 200.333C410.722 200.278 410.778 199.222 410.333 199.667z"/>
<path style="fill:#9fbcf2; stroke:none;" d="M36 200L36 203C36.6961 201.446 36.6961 201.554 36 200z"/>
<path style="fill:#a8c2f3; stroke:none;" d="M493.333 200.667C493.278 200.722 493.222 201.778 493.667 201.333C493.722 201.278 493.778 200.222 493.333 200.667z"/>
<path style="fill:#c5d6f7; stroke:none;" d="M119.333 201.667C119.278 201.722 119.222 202.778 119.667 202.333C119.722 202.278 119.778 201.222 119.333 201.667z"/>
<path style="fill:#b5cbf5; stroke:none;" d="M411.333 202.667C411.278 202.722 411.222 203.778 411.667 203.333C411.722 203.278 411.778 202.222 411.333 202.667z"/>
<path style="fill:#b6ccf5; stroke:none;" d="M118 204L118 207C118.696 205.446 118.696 205.554 118 204z"/>
<path style="fill:#9bb9f2; stroke:none;" d="M35 205L35 208C35.6961 206.446 35.6961 206.554 35 205z"/>
<path style="fill:#bfd2f6; stroke:none;" d="M494.333 205.667C494.278 205.722 494.222 206.778 494.667 206.333C494.722 206.278 494.778 205.222 494.333 205.667z"/>
<path style="fill:#93b3f1; stroke:none;" d="M412 206L412 209C412.696 207.446 412.696 207.554 412 206z"/>
<path style="fill:#80a6ee; stroke:none;" d="M494.333 207.667C494.278 207.722 494.222 208.778 494.667 208.333C494.722 208.278 494.778 207.222 494.333 207.667z"/>
<path style="fill:#9fbcf2; stroke:none;" d="M117 208L117 211C117.696 209.446 117.696 209.554 117 208z"/>
<path style="fill:#97b6f1; stroke:none;" d="M34 210L34 213C34.6961 211.446 34.6961 211.554 34 210z"/>
<path style="fill:#8baef0; stroke:none;" d="M413 212L413 215C413.696 213.446 413.696 213.554 413 212z"/>
<path style="fill:#d6e2f9; stroke:none;" d="M495.333 212.667C495.278 212.722 495.222 213.778 495.667 213.333C495.722 213.278 495.778 212.222 495.333 212.667z"/>
<path style="fill:#b1c8f5; stroke:none;" d="M116.333 213.667C116.278 213.722 116.222 214.778 116.667 214.333C116.722 214.278 116.778 213.222 116.333 213.667M495 214L495 217C495.696 215.446 495.696 215.554 495 214z"/>
<path style="fill:#9bb9f2; stroke:none;" d="M33.3333 215.667C33.2777 215.722 33.2223 216.778 33.6667 216.333C33.7222 216.278 33.7778 215.222 33.3333 215.667z"/>
<path style="fill:#749dec; stroke:none;" d="M33 217L33 220C33.6961 218.446 33.6961 218.554 33 217z"/>
<path style="fill:#7ba2ed; stroke:none;" d="M495.333 217.667C495.278 217.722 495.222 218.778 495.667 218.333C495.722 218.278 495.778 217.222 495.333 217.667z"/>
<path style="fill:#d9e5fa; stroke:none;" d="M115.333 218.667C115.278 218.722 115.222 219.778 115.667 219.333C115.722 219.278 115.778 218.222 115.333 218.667z"/>
<path style="fill:#adc6f4; stroke:none;" d="M414.333 219.667C414.278 219.722 414.222 220.778 414.667 220.333C414.722 220.278 414.778 219.222 414.333 219.667z"/>
<path style="fill:#d2dff9; stroke:none;" d="M115 221C122.4 224.105 133.993 222 142 222L203 222L415 222C407.6 218.895 396.007 221 388 221L327 221L115 221z"/>
<path style="fill:#c5d6f7; stroke:none;" d="M32 222L32 225C32.6961 223.446 32.6961 223.554 32 222z"/>
<path style="fill:#d4e1f9; stroke:none;" d="M496.333 222.667C496.278 222.722 496.222 223.778 496.667 223.333C496.722 223.278 496.778 222.222 496.333 222.667z"/>
<path style="fill:#afc7f4; stroke:none;" d="M496.333 224.667C496.278 224.722 496.222 225.778 496.667 225.333C496.722 225.278 496.778 224.222 496.333 224.667z"/>
<path style="fill:#89adef; stroke:none;" d="M32 225L32 228C32.6961 226.446 32.6961 226.554 32 225z"/>
<path style="fill:#8baeef; stroke:none;" d="M496 226L496 229C496.696 227.446 496.696 227.554 496 226z"/>
<path style="fill:#c7d8f7; stroke:none;" d="M31 231L31 234C31.6961 232.446 31.6961 232.554 31 231z"/>
<path style="fill:#8baef0; stroke:none;" d="M31 234L31 237C31.6961 235.446 31.6961 235.554 31 234z"/>
<path style="fill:#cedcf8; stroke:none;" d="M497 235L497 241C497.951 238.715 497.951 237.285 497 235z"/>
<path style="fill:#b1c8f5; stroke:none;" d="M497 241L497 246C497.83 243.97 497.83 243.03 497 241z"/>
<path style="fill:#cddcf8; stroke:none;" d="M30 243L30 252C31.2561 249.006 31.2561 245.994 30 243z"/>
<path style="fill:#94b4f1; stroke:none;" d="M497 246L497 251C497.83 248.969 497.83 248.03 497 246z"/>
<path style="fill:#7ca3ee; stroke:none;" d="M497 251L497 256C497.83 253.969 497.83 253.03 497 251z"/>
<path style="fill:#a0bcf2; stroke:none;" d="M30 252L30 257C30.8299 254.97 30.8299 254.03 30 252z"/>
<path style="fill:#adc6f4; stroke:none;" d="M497.333 256.667C497.278 256.722 497.222 257.778 497.667 257.333C497.722 257.278 497.778 256.222 497.333 256.667z"/>
<path style="fill:#83a8ef; stroke:none;" d="M30 257L30 273C31.8123 268.681 31.8123 261.319 30 257z"/>
<path style="fill:#ceddf8; stroke:none;" d="M497 258L497 261C497.696 259.446 497.696 259.554 497 258z"/>
<path style="fill:#d6e3fa; stroke:none;" d="M495.333 267.667C495.278 267.722 495.222 268.778 495.667 268.333C495.722 268.278 495.778 267.222 495.333 267.667z"/>
<path style="fill:#a9c3f4; stroke:none;" d="M494 270L495 271L494 270z"/>
<path style="fill:#b9cef6; stroke:none;" d="M493 272L494 273L493 272z"/>
<path style="fill:#c8d9f8; stroke:none;" d="M30 273L30 283C31.3457 279.793 31.3457 276.207 30 273z"/>
<path style="fill:#8aadef; stroke:none;" d="M491 275L492 276L491 275z"/>
<path style="fill:#b1c8f5; stroke:none;" d="M490 277L491 278L490 277z"/>
<path style="fill:#96b6f1; stroke:none;" d="M489 278L490 279L489 278z"/>
<path style="fill:#9bb9f2; stroke:none;" d="M483 284L484 285L483 284z"/>
<path style="fill:#bfd2f6; stroke:none;" d="M482 285L483 286L482 285z"/>
<path style="fill:#769fed; stroke:none;" d="M31 286L31 289C31.6961 287.446 31.6961 287.554 31 286z"/>
<path style="fill:#93b3f1; stroke:none;" d="M479 287L480 288L479 287M477 288L478 289L477 288z"/>
<path style="fill:#adc6f4; stroke:none;" d="M31.3333 289.667C31.2778 289.722 31.2223 290.778 31.6667 290.333C31.7222 290.278 31.7778 289.222 31.3333 289.667z"/>
<path style="fill:#93b3f1; stroke:none;" d="M475 289L476 290L475 289M473 290L474 291L473 290z"/>
<path style="fill:#d2dff9; stroke:none;" d="M31 291L31 294C31.6961 292.446 31.6961 292.554 31 291z"/>
<path style="fill:#b9cef6; stroke:none;" d="M470.667 291.333C470.222 291.778 471.278 291.722 471.333 291.667C471.778 291.222 470.722 291.278 470.667 291.333z"/>
<path style="fill:#cfdef9; stroke:none;" d="M467.667 292.333C467.222 292.778 468.278 292.722 468.333 292.667C468.778 292.222 467.722 292.278 467.667 292.333z"/>
<path style="fill:#6e99ec; stroke:none;" d="M457 293C458.248 293.685 458.548 293.749 460 294C458.752 293.315 458.452 293.251 457 293z"/>
<path style="fill:#9cbaf2; stroke:none;" d="M460 293C461.248 293.685 461.548 293.749 463 294C461.752 293.315 461.452 293.251 460 293z"/>
<path style="fill:#cadaf8; stroke:none;" d="M463.667 293.333C463.222 293.778 464.278 293.722 464.333 293.667C464.778 293.222 463.722 293.278 463.667 293.333z"/>
<path style="fill:#aac3f4; stroke:none;" d="M114 295L114 298C114.696 296.446 114.696 296.554 114 295z"/>
<path style="fill:#7aa2ed; stroke:none;" d="M32.3333 296.667C32.2777 296.722 32.2222 297.778 32.6667 297.333C32.7222 297.278 32.7778 296.222 32.3333 296.667z"/>
<path style="fill:#9fbcf2; stroke:none;" d="M32.3333 298.667C32.2777 298.722 32.2223 299.778 32.6667 299.333C32.7222 299.278 32.7778 298.222 32.3333 298.667z"/>
<path style="fill:#c4d6f7; stroke:none;" d="M32 300L32 303C32.6961 301.446 32.6961 301.554 32 300z"/>
<path style="fill:#b3caf5; stroke:none;" d="M115 300L115 303C115.696 301.446 115.696 301.554 115 300z"/>
<path style="fill:#abc4f4; stroke:none;" d="M33 305L33 308C33.6961 306.446 33.6961 306.554 33 305z"/>
<path style="fill:#acc5f4; stroke:none;" d="M116 305L116 308C116.696 306.446 116.696 306.554 116 305z"/>
<path style="fill:#9dbaf2; stroke:none;" d="M34 310L34 313C34.6961 311.446 34.6961 311.554 34 310z"/>
<path style="fill:#a5c0f3; stroke:none;" d="M117.333 310.667C117.278 310.722 117.222 311.778 117.667 311.333C117.722 311.278 117.778 310.222 117.333 310.667z"/>
<path style="fill:#7ba2ed; stroke:none;" d="M118.333 314.667C118.278 314.722 118.222 315.778 118.667 315.333C118.722 315.278 118.778 314.222 118.333 314.667z"/>
<path style="fill:#8fb0f0; stroke:none;" d="M35 315L35 318C35.6961 316.446 35.6961 316.554 35 315z"/>
<path style="fill:#82a7ee; stroke:none;" d="M119.333 317.667C119.278 317.722 119.222 318.778 119.667 318.333C119.722 318.278 119.778 317.222 119.333 317.667z"/>
<path style="fill:#89acef; stroke:none;" d="M120.333 320.667C120.278 320.722 120.222 321.778 120.667 321.333C120.722 321.278 120.778 320.222 120.333 320.667z"/>
<path style="fill:#b3c9f5; stroke:none;" d="M36.3333 321.667C36.2777 321.722 36.2223 322.778 36.6667 322.333C36.7222 322.278 36.7778 321.222 36.3333 321.667z"/>
<path style="fill:#90b1f0; stroke:none;" d="M121.333 323.667C121.278 323.722 121.222 324.778 121.667 324.333C121.722 324.278 121.778 323.222 121.333 323.667z"/>
<path style="fill:#bacff6; stroke:none;" d="M37.3333 325.667C37.2778 325.722 37.2222 326.778 37.6667 326.333C37.7222 326.278 37.7778 325.222 37.3333 325.667z"/>
<path style="fill:#97b6f1; stroke:none;" d="M122.333 326.667C122.278 326.722 122.222 327.778 122.667 327.333C122.722 327.278 122.778 326.222 122.333 326.667z"/>
<path style="fill:#bed2f6; stroke:none;" d="M38.3333 329.667C38.2777 329.722 38.2222 330.778 38.6667 330.333C38.7222 330.278 38.7778 329.222 38.3333 329.667z"/>
<path style="fill:#b7cdf5; stroke:none;" d="M123 329L124 330L123 329z"/>
<path style="fill:#91b2f0; stroke:none;" d="M124 332L125 333L124 332z"/>
<path style="fill:#c0d3f7; stroke:none;" d="M39.3333 333.667C39.2778 333.722 39.2222 334.778 39.6667 334.333C39.7222 334.278 39.7778 333.222 39.3333 333.667z"/>
<path style="fill:#a9c3f3; stroke:none;" d="M125 334L126 335L125 334z"/>
<path style="fill:#c1d3f7; stroke:none;" d="M126 336L127 337L126 336z"/>
<path style="fill:#c2d5f7; stroke:none;" d="M40.3333 337.667C40.2777 337.722 40.2222 338.778 40.6667 338.333C40.7222 338.278 40.7778 337.222 40.3333 337.667z"/>
<path style="fill:#9ab8f2; stroke:none;" d="M127 339L128 340L127 339z"/>
<path style="fill:#b2c9f5; stroke:none;" d="M128 341L129 342L128 341z"/>
<path style="fill:#b5cbf5; stroke:none;" d="M42.3333 343.667C42.2777 343.722 42.2222 344.778 42.6667 344.333C42.7222 344.278 42.7778 343.222 42.3333 343.667M130 345L131 346L130 345z"/>
<path style="fill:#b7cdf5; stroke:none;" d="M43.3333 346.667C43.2777 346.722 43.2222 347.778 43.6667 347.333C43.7222 347.278 43.7778 346.222 43.3333 346.667z"/>
<path style="fill:#a1bdf3; stroke:none;" d="M131 347L132 348L131 347z"/>
<path style="fill:#bacef6; stroke:none;" d="M44.3333 349.667C44.2778 349.722 44.2222 350.778 44.6667 350.333C44.7222 350.278 44.7778 349.222 44.3333 349.667z"/>
<path style="fill:#8eb0f0; stroke:none;" d="M132 349L133 350L132 349z"/>
<path style="fill:#bcd0f6; stroke:none;" d="M45.3333 352.667C45.2777 352.722 45.2222 353.778 45.6667 353.333C45.7222 353.278 45.7778 352.222 45.3333 352.667z"/>
<path style="fill:#b7cdf5; stroke:none;" d="M134 352L135 353L134 352z"/>
<path style="fill:#a4bff3; stroke:none;" d="M135 354L136 355L135 354z"/>
<path style="fill:#bed1f6; stroke:none;" d="M46.3333 355.667C46.2777 355.722 46.2223 356.778 46.6667 356.333C46.7222 356.278 46.7778 355.222 46.3333 355.667z"/>
<path style="fill:#90b2f0; stroke:none;" d="M136 356L137 357L136 356z"/>
<path style="fill:#99b8f1; stroke:none;" d="M47 358L48 359L47 358z"/>
<path style="fill:#9ab8f2; stroke:none;" d="M138 359L139 360L138 359z"/>
<path style="fill:#bfd2f6; stroke:none;" d="M139 360L140 361L139 360z"/>
<path style="fill:#c0d3f7; stroke:none;" d="M48 361L49 362L48 361z"/>
<path style="fill:#a8c2f3; stroke:none;" d="M49 363L50 364L49 363z"/>
<path style="fill:#a9c3f3; stroke:none;" d="M141 363L142 364L141 363z"/>
<path style="fill:#91b2f0; stroke:none;" d="M50 365L51 366L50 365z"/>
<path style="fill:#93b3f1; stroke:none;" d="M143 366L144 367L143 366z"/>
<path style="fill:#b7cdf5; stroke:none;" d="M144 367L145 368L144 367M51 368L52 369L51 368z"/>
<path style="fill:#a0bcf2; stroke:none;" d="M52 370L53 371L52 370z"/>
<path style="fill:#a1bdf3; stroke:none;" d="M146 370L147 371L146 370z"/>
<path style="fill:#88acef; stroke:none;" d="M53 372L54 373L53 372z"/>
<path style="fill:#bacff6; stroke:none;" d="M54 375L55 376L54 375z"/>
<path style="fill:#c3d5f7; stroke:none;" d="M55 377L56 378L55 377z"/>
<path style="fill:#91b2f0; stroke:none;" d="M152 377L153 378L152 377z"/>
<path style="fill:#9dbbf2; stroke:none;" d="M153 378L154 379L153 378z"/>
<path style="fill:#b8cdf6; stroke:none;" d="M154 379L155 380L154 379z"/>
<path style="fill:#88acef; stroke:none;" d="M57 380L58 381L57 380z"/>
<path style="fill:#91b2f0; stroke:none;" d="M58 382L59 383L58 382z"/>
<path style="fill:#9ab8f1; stroke:none;" d="M59 384L60 385L59 384z"/>
<path style="fill:#a2bef3; stroke:none;" d="M60 386L61 387L60 386z"/>
<path style="fill:#abc4f4; stroke:none;" d="M61 388L62 389L61 388z"/>
<path style="fill:#b4caf5; stroke:none;" d="M62 390L63 391L62 390z"/>
<path style="fill:#bbcff6; stroke:none;" d="M165 390L166 391L165 390z"/>
<path style="fill:#b4caf5; stroke:none;" d="M414 390C415.769 390.779 417.036 390.912 419 391C417.231 390.221 415.964 390.088 414 390z"/>
<path style="fill:#84a9ef; stroke:none;" d="M419 390C420.506 390.683 421.315 390.826 423 391C421.494 390.317 420.685 390.174 419 390z"/>
<path style="fill:#afc7f4; stroke:none;" d="M423.667 390.333C423.222 390.778 424.278 390.722 424.333 390.667C424.778 390.222 423.722 390.278 423.667 390.333z"/>
<path style="fill:#d1dff9; stroke:none;" d="M425 390C426.248 390.685 426.548 390.749 428 391C426.752 390.315 426.452 390.251 425 390z"/>
<path style="fill:#acc5f4; stroke:none;" d="M166 391L167 392L166 391z"/>
<path style="fill:#adc5f4; stroke:none;" d="M409.667 391.333C409.222 391.778 410.278 391.722 410.333 391.667C410.778 391.222 409.722 391.278 409.667 391.333z"/>
<path style="fill:#a2bef3; stroke:none;" d="M430.667 391.333C430.222 391.778 431.278 391.722 431.333 391.667C431.778 391.222 430.722 391.278 430.667 391.333z"/>
<path style="fill:#9ebbf2; stroke:none;" d="M167 392L168 393L167 392z"/>
<path style="fill:#a0bcf2; stroke:none;" d="M405 392C406.248 392.685 406.548 392.749 408 393C406.752 392.315 406.452 392.251 405 392z"/>
<path style="fill:#a5c0f3; stroke:none;" d="M435.667 392.333C435.222 392.778 436.278 392.722 436.333 392.667C436.778 392.222 435.722 392.278 435.667 392.333z"/>
<path style="fill:#9ebbf2; stroke:none;" d="M64 393L65 394L64 393z"/>
<path style="fill:#8fb1f0; stroke:none;" d="M168 393L169 394L168 393z"/>
<path style="fill:#aac4f4; stroke:none;" d="M403 393L404 394L403 393z"/>
<path style="fill:#9fbcf2; stroke:none;" d="M438 393L439 394L438 393z"/>
<path style="fill:#9bb9f2; stroke:none;" d="M401 394L402 395L401 394z"/>
<path style="fill:#99b8f1; stroke:none;" d="M440 394L441 395L440 394z"/>
<path style="fill:#8caef0; stroke:none;" d="M399 395L400 396L399 395z"/>
<path style="fill:#94b4f1; stroke:none;" d="M442 395L443 396L442 395z"/>
<path style="fill:#95b5f1; stroke:none;" d="M66 396L67 397L66 396z"/>
<path style="fill:#bdd1f6; stroke:none;" d="M172 396L173 397L172 396z"/>
<path style="fill:#8eb0f0; stroke:none;" d="M397 396L398 397L397 396z"/>
<path style="fill:#bfd2f6; stroke:none;" d="M444 396L445 397L444 396z"/>
<path style="fill:#9bb9f2; stroke:none;" d="M173 397L174 398L173 397z"/>
<path style="fill:#b7cdf5; stroke:none;" d="M395 397L396 398L395 397z"/>
<path style="fill:#94b4f1; stroke:none;" d="M445 397L446 398L445 397z"/>
<path style="fill:#bcd0f6; stroke:none;" d="M67 398L68 399L67 398z"/>
<path style="fill:#88acef; stroke:none;" d="M394 398L395 399L394 398z"/>
<path style="fill:#8baef0; stroke:none;" d="M68 399L69 400L68 399z"/>
<path style="fill:#bacff6; stroke:none;" d="M176 399L177 400L176 399z"/>
<path style="fill:#b2c9f5; stroke:none;" d="M392 399L393 400L392 399z"/>
<path style="fill:#a4bff3; stroke:none;" d="M448 399L449 400L448 399z"/>
<path style="fill:#99b8f1; stroke:none;" d="M177 400L178 401L177 400z"/>
<path style="fill:#9ebbf2; stroke:none;" d="M449 400L450 401L449 400z"/>
<path style="fill:#b3c9f5; stroke:none;" d="M69 401L70 402L69 401z"/>
<path style="fill:#b5cbf5; stroke:none;" d="M389 401L390 402L389 401z"/>
<path style="fill:#99b8f1; stroke:none;" d="M450 401L451 402L450 401z"/>
<path style="fill:#b8cdf6; stroke:none;" d="M180 402L181 403L180 402z"/>
<path style="fill:#8aadef; stroke:none;" d="M388 402L389 403L388 402z"/>
<path style="fill:#94b4f1; stroke:none;" d="M451 402L452 403L451 402z"/>
<path style="fill:#97b6f1; stroke:none;" d="M181 403L182 404L181 403z"/>
<path style="fill:#bbcff6; stroke:none;" d="M386 403L387 404L386 403z"/>
<path style="fill:#93b3f1; stroke:none;" d="M452 403L453 404L452 403z"/>
<path style="fill:#a9c3f4; stroke:none;" d="M71 404L72 405L71 404z"/>
<path style="fill:#91b2f0; stroke:none;" d="M385 404L386 405L385 404z"/>
<path style="fill:#93b3f1; stroke:none;" d="M453 404L454 405L453 404z"/>
<path style="fill:#b6ccf5; stroke:none;" d="M184 405L185 406L184 405z"/>
<path style="fill:#c2d4f7; stroke:none;" d="M383 405L384 406L383 405z"/>
<path style="fill:#a6c1f3; stroke:none;" d="M454 405L455 406L454 405z"/>
<path style="fill:#88acef; stroke:none;" d="M185 406L186 407L185 406z"/>
<path style="fill:#97b6f1; stroke:none;" d="M382 406L383 407L382 406z"/>
<path style="fill:#a0bcf2; stroke:none;" d="M73 407L74 408L73 407z"/>
<path style="fill:#9fbcf2; stroke:none;" d="M187 407L188 408L187 407z"/>
<path style="fill:#bcd0f6; stroke:none;" d="M380 407L381 408L380 407z"/>
<path style="fill:#b6ccf5; stroke:none;" d="M189 408L190 409L189 408z"/>
<path style="fill:#8eb0f0; stroke:none;" d="M377 409L378 410L377 409z"/>
<path style="fill:#a2bef3; stroke:none;" d="M457 409L458 410L457 409z"/>
<path style="fill:#a8c2f3; stroke:none;" d="M75 410L76 411L75 410z"/>
<path style="fill:#94b4f1; stroke:none;" d="M192 410L193 411L192 410z"/>
<path style="fill:#9dbbf2; stroke:none;" d="M375 410L376 411L375 410z"/>
<path style="fill:#bed2f6; stroke:none;" d="M458 410L459 411L458 410z"/>
<path style="fill:#8baef0; stroke:none;" d="M76 411L77 412L76 411z"/>
<path style="fill:#abc4f4; stroke:none;" d="M194 411L195 412L194 411z"/>
<path style="fill:#adc5f4; stroke:none;" d="M373 411L374 412L373 411z"/>
<path style="fill:#c2d4f7; stroke:none;" d="M196 412L197 413L196 412z"/>
<path style="fill:#bcd0f6; stroke:none;" d="M371 412L372 413L371 412z"/>
<path style="fill:#acc5f4; stroke:none;" d="M459 412L460 413L459 412z"/>
<path style="fill:#88acef; stroke:none;" d="M197 413L198 414L197 413z"/>
<path style="fill:#b6ccf5; stroke:none;" d="M78 414L79 415L78 414z"/>
<path style="fill:#9fbcf2; stroke:none;" d="M199 414L200 415L199 414z"/>
<path style="fill:#b8cdf5; stroke:none;" d="M367 414L368 415L367 414z"/>
<path style="fill:#a1bdf2; stroke:none;" d="M460 414L461 415L460 414z"/>
<path style="fill:#99b8f1; stroke:none;" d="M79 415L80 416L79 415z"/>
<path style="fill:#9ab9f2; stroke:none;" d="M201 415L202 416L201 415z"/>
<path style="fill:#a9c3f4; stroke:none;" d="M365 415L366 416L365 415z"/>
<path style="fill:#8caff0; stroke:none;" d="M203 416L204 417L203 416z"/>
<path style="fill:#9bb9f2; stroke:none;" d="M363 416L364 417L363 416z"/>
<path style="fill:#95b5f1; stroke:none;" d="M461 416L462 417L461 416z"/>
<path style="fill:#c0d3f7; stroke:none;" d="M206 417L207 418L206 417z"/>
<path style="fill:#8daff0; stroke:none;" d="M361 417L362 418L361 417z"/>
<path style="fill:#c3d5f7; stroke:none;" d="M81 418L82 419L81 418z"/>
<path style="fill:#b2c9f5; stroke:none;" d="M208 418L209 419L208 418z"/>
<path style="fill:#c0d3f7; stroke:none;" d="M358 418L359 419L358 418z"/>
<path style="fill:#91b2f0; stroke:none;" d="M462.333 418.667C462.278 418.722 462.222 419.778 462.667 419.333C462.722 419.278 462.778 418.222 462.333 418.667z"/>
<path style="fill:#a6c1f3; stroke:none;" d="M82 419L83 420L82 419z"/>
<path style="fill:#a4bff3; stroke:none;" d="M210 419L211 420L210 419z"/>
<path style="fill:#709bec; stroke:none;" d="M356.667 419.333C356.222 419.778 357.278 419.722 357.333 419.667C357.778 419.222 356.722 419.278 356.667 419.333z"/>
<path style="fill:#89adef; stroke:none;" d="M83 420L84 421L83 420z"/>
<path style="fill:#96b5f1; stroke:none;" d="M212 420L213 421L212 420z"/>
<path style="fill:#84a9ef; stroke:none;" d="M353.667 420.333C353.222 420.778 354.278 420.722 354.333 420.667C354.778 420.222 353.722 420.278 353.667 420.333z"/>
<path style="fill:#87abef; stroke:none;" d="M214 421L215 422L214 421z"/>
<path style="fill:#ccdbf8; stroke:none;" d="M217.667 422.333C217.222 422.778 218.278 422.722 218.333 422.667C218.778 422.222 217.722 422.278 217.667 422.333z"/>
<path style="fill:#719cec; stroke:none;" d="M348.667 422.333C348.222 422.778 349.278 422.722 349.333 422.667C349.778 422.222 348.722 422.278 348.667 422.333z"/>
<path style="fill:#739dec; stroke:none;" d="M463 422L463 425C463.696 423.446 463.696 423.554 463 422z"/>
<path style="fill:#b4cbf5; stroke:none;" d="M85 423L86 424L85 423z"/>
<path style="fill:#ccdbf8; stroke:none;" d="M220.667 423.333C220.222 423.778 221.278 423.722 221.333 423.667C221.778 423.222 220.722 423.278 220.667 423.333z"/>
<path style="fill:#84a9ef; stroke:none;" d="M345.667 423.333C345.222 423.778 346.278 423.722 346.333 423.667C346.778 423.222 345.722 423.278 345.667 423.333z"/>
<path style="fill:#97b6f1; stroke:none;" d="M86 424L87 425L86 424z"/>
<path style="fill:#ccdbf8; stroke:none;" d="M223.667 424.333C223.222 424.778 224.278 424.722 224.333 424.667C224.778 424.222 223.722 424.278 223.667 424.333z"/>
<path style="fill:#97b6f1; stroke:none;" d="M342.667 424.333C342.222 424.778 343.278 424.722 343.333 424.667C343.778 424.222 342.722 424.278 342.667 424.333z"/>
<path style="fill:#ccdbf8; stroke:none;" d="M226.667 425.333C226.222 425.778 227.278 425.722 227.333 425.667C227.778 425.222 226.722 425.278 226.667 425.333z"/>
<path style="fill:#8eb0f0; stroke:none;" d="M339.667 425.333C339.222 425.778 340.278 425.722 340.333 425.667C340.778 425.222 339.722 425.278 339.667 425.333z"/>
<path style="fill:#ccdbf8; stroke:none;" d="M229.667 426.333C229.222 426.778 230.278 426.722 230.333 426.667C230.778 426.222 229.722 426.278 229.667 426.333z"/>
<path style="fill:#83a8ef; stroke:none;" d="M336.667 426.333C336.222 426.778 337.278 426.722 337.333 426.667C337.778 426.222 336.722 426.278 336.667 426.333z"/>
<path style="fill:#d7e3fa; stroke:none;" d="M464 426L464 429C464.696 427.446 464.696 427.554 464 426z"/>
<path style="fill:#b3caf5; stroke:none;" d="M232 427C233.248 427.685 233.548 427.749 235 428C233.752 427.315 233.452 427.251 232 427z"/>
<path style="fill:#79a1ed; stroke:none;" d="M333.667 427.333C333.222 427.778 334.278 427.722 334.333 427.667C334.778 427.222 333.722 427.278 333.667 427.333z"/>
<path style="fill:#a3bff3; stroke:none;" d="M236 428C237.248 428.685 237.548 428.749 239 429C237.752 428.315 237.452 428.251 236 428z"/>
<path style="fill:#6e99ec; stroke:none;" d="M330.667 428.333C330.222 428.778 331.278 428.722 331.333 428.667C331.778 428.222 330.722 428.278 330.667 428.333z"/>
<path style="fill:#c2d5f7; stroke:none;" d="M90 429L91 430L90 429z"/>
<path style="fill:#bcd0f6; stroke:none;" d="M241.667 429.333C241.222 429.778 242.278 429.722 242.333 429.667C242.778 429.222 241.722 429.278 241.667 429.333z"/>
<path style="fill:#9fbcf2; stroke:none;" d="M325 429C326.248 429.685 326.548 429.749 328 430C326.752 429.315 326.452 429.251 325 429z"/>
<path style="fill:#b1c8f5; stroke:none;" d="M464.333 429.667C464.278 429.722 464.222 430.778 464.667 430.333C464.722 430.278 464.778 429.222 464.333 429.667z"/>
<path style="fill:#b8cef6; stroke:none;" d="M91 430L92 431L91 430z"/>
<path style="fill:#afc7f4; stroke:none;" d="M245.667 430.333C245.222 430.778 246.278 430.722 246.333 430.667C246.778 430.222 245.722 430.278 245.667 430.333z"/>
<path style="fill:#a5c0f3; stroke:none;" d="M320.667 430.333C320.222 430.778 321.278 430.722 321.333 430.667C321.778 430.222 320.722 430.278 320.667 430.333z"/>
<path style="fill:#aec7f4; stroke:none;" d="M92 431L93 432L92 431z"/>
<path style="fill:#91b2f0; stroke:none;" d="M249 431C250.248 431.685 250.548 431.749 252 432C250.752 431.315 250.452 431.251 249 431z"/>
<path style="fill:#dbe6fa; stroke:none;" d="M252.667 431.333C252.222 431.778 253.278 431.722 253.333 431.667C253.778 431.222 252.722 431.278 252.667 431.333z"/>
<path style="fill:#b2c9f5; stroke:none;" d="M315.667 431.333C315.222 431.778 316.278 431.722 316.333 431.667C316.778 431.222 315.722 431.278 315.667 431.333z"/>
<path style="fill:#a5c0f3; stroke:none;" d="M93 432L94 433L93 432z"/>
<path style="fill:#89adef; stroke:none;" d="M256.667 432.333C256.222 432.778 257.278 432.722 257.333 432.667C257.778 432.222 256.722 432.278 256.667 432.333z"/>
<path style="fill:#bbcff6; stroke:none;" d="M258 432C259.248 432.685 259.548 432.749 261 433C259.752 432.315 259.452 432.251 258 432z"/>
<path style="fill:#bbd0f6; stroke:none;" d="M308 432C309.248 432.685 309.548 432.749 311 433C309.752 432.315 309.452 432.251 308 432z"/>
<path style="fill:#78a0ed; stroke:none;" d="M311.667 432.333C311.222 432.778 312.278 432.722 312.333 432.667C312.778 432.222 311.722 432.278 311.667 432.333z"/>
<path style="fill:#9bb9f2; stroke:none;" d="M94 433L95 434L94 433z"/>
<path style="fill:#82a7ee; stroke:none;" d="M263.667 433.333C263.222 433.778 264.278 433.722 264.333 433.667C264.778 433.222 263.722 433.278 263.667 433.333z"/>
<path style="fill:#b3caf5; stroke:none;" d="M265.667 433.333C265.222 433.778 266.278 433.722 266.333 433.667C266.778 433.222 265.722 433.278 265.667 433.333z"/>
<path style="fill:#d2dff9; stroke:none;" d="M297 433C298.506 433.683 299.315 433.826 301 434C299.494 433.317 298.685 433.174 297 433z"/>
<path style="fill:#a5c0f3; stroke:none;" d="M301 433C302.248 433.685 302.548 433.749 304 434C302.752 433.315 302.452 433.251 301 433z"/>
<path style="fill:#91b2f0; stroke:none;" d="M95 434L96 435L95 434z"/>
<path style="fill:#85aaef; stroke:none;" d="M278 434C280.052 434.874 281.747 434.953 284 435C281.948 434.126 280.253 434.047 278 434z"/>
<path style="fill:#a0bcf2; stroke:none;" d="M284 434C285.769 434.779 287.036 434.912 289 435C287.231 434.221 285.964 434.088 284 434z"/>
<path style="fill:#6493ea; stroke:none;" d="M289 434C290.769 434.779 292.036 434.912 294 435C292.231 434.221 290.964 434.088 289 434z"/>
<path style="fill:#87abef; stroke:none;" d="M96 435L97 436L96 435z"/>
<path style="fill:#8badef; stroke:none;" d="M463 435L463 438C463.696 436.446 463.696 436.554 463 435z"/>
<path style="fill:#b1c8f5; stroke:none;" d="M462 440L463 441L462 440z"/>
<path style="fill:#ccdbf8; stroke:none;" d="M461.333 442.667C461.278 442.722 461.222 443.778 461.667 443.333C461.722 443.278 461.778 442.222 461.333 442.667z"/>
<path style="fill:#93b3f1; stroke:none;" d="M105 444L106 445L105 444z"/>
<path style="fill:#abc4f4; stroke:none;" d="M106 445L107 446L106 445z"/>
<path style="fill:#c3d5f7; stroke:none;" d="M107 446L108 447L107 446z"/>
<path style="fill:#a0bcf2; stroke:none;" d="M459 446L460 447L459 446z"/>
<path style="fill:#aac4f4; stroke:none;" d="M457 449L458 450L457 449z"/>
<path style="fill:#8daff0; stroke:none;" d="M113 451L114 452L113 451z"/>
<path style="fill:#98b7f1; stroke:none;" d="M114 452L115 453L114 452z"/>
<path style="fill:#a4bff3; stroke:none;" d="M115 453L116 454L115 453z"/>
<path style="fill:#b0c7f4; stroke:none;" d="M116 454L117 455L116 454z"/>
<path style="fill:#8daff0; stroke:none;" d="M452 454L453 455L452 454z"/>
<path style="fill:#bbd0f6; stroke:none;" d="M117 455L118 456L117 455z"/>
<path style="fill:#97b6f1; stroke:none;" d="M451 455L452 456L451 455z"/>
<path style="fill:#a0bdf2; stroke:none;" d="M450 456L451 457L450 456z"/>
<path style="fill:#97b6f1; stroke:none;" d="M120 457L121 458L120 457z"/>
<path style="fill:#b8cdf6; stroke:none;" d="M449 457L450 458L449 457z"/>
<path style="fill:#bdd1f6; stroke:none;" d="M121 458L122 459L121 458z"/>
<path style="fill:#a6c1f3; stroke:none;" d="M446 459L447 460L446 459z"/>
<path style="fill:#aac3f4; stroke:none;" d="M124 460L125 461L124 460z"/>
<path style="fill:#94b4f1; stroke:none;" d="M443 461L444 462L443 461z"/>
<path style="fill:#97b6f1; stroke:none;" d="M127 462L128 463L127 462z"/>
<path style="fill:#bbcff6; stroke:none;" d="M442 462L443 463L442 462z"/>
<path style="fill:#bdd1f6; stroke:none;" d="M128 463L129 464L128 463z"/>
<path style="fill:#a9c3f4; stroke:none;" d="M439 464L440 465L439 464z"/>
<path style="fill:#aac3f4; stroke:none;" d="M131 465L132 466L131 465z"/>
<path style="fill:#9cbaf2; stroke:none;" d="M436 466L437 467L436 466z"/>
<path style="fill:#97b6f1; stroke:none;" d="M134 467L135 468L134 467z"/>
<path style="fill:#bdd1f6; stroke:none;" d="M135 468L136 469L135 468z"/>
<path style="fill:#aec6f4; stroke:none;" d="M433 468L434 469L433 468z"/>
<path style="fill:#9bb9f2; stroke:none;" d="M137 469L138 470L137 469z"/>
<path style="fill:#8baef0; stroke:none;" d="M431 469L432 470L431 469z"/>
<path style="fill:#bfd2f6; stroke:none;" d="M430 470L431 471L430 470z"/>
<path style="fill:#b1c8f5; stroke:none;" d="M140 471L141 472L140 471z"/>
<path style="fill:#9cbaf2; stroke:none;" d="M428 471L429 472L428 471z"/>
<path style="fill:#92b3f0; stroke:none;" d="M142 472L143 473L142 472z"/>
<path style="fill:#aec6f4; stroke:none;" d="M425 473L426 474L425 473z"/>
<path style="fill:#a8c2f3; stroke:none;" d="M145 474L146 475L145 474z"/>
<path style="fill:#8baef0; stroke:none;" d="M423 474L424 475L423 474z"/>
<path style="fill:#89acef; stroke:none;" d="M147 475L148 476L147 475z"/>
<path style="fill:#bed1f6; stroke:none;" d="M148 476L149 477L148 476z"/>
<path style="fill:#c0d3f7; stroke:none;" d="M420 476L421 477L420 476z"/>
<path style="fill:#9fbbf2; stroke:none;" d="M150 477L151 478L150 477z"/>
<path style="fill:#b9cef6; stroke:none;" d="M418 477L419 478L418 477z"/>
<path style="fill:#b2c9f5; stroke:none;" d="M416 478L417 479L416 478z"/>
<path style="fill:#b5cbf5; stroke:none;" d="M153 479L154 480L153 479z"/>
<path style="fill:#abc4f4; stroke:none;" d="M414 479L415 480L414 479z"/>
<path style="fill:#a7c1f3; stroke:none;" d="M155 480L156 481L155 480z"/>
<path style="fill:#a4bff3; stroke:none;" d="M412 480L413 481L412 480z"/>
<path style="fill:#aac4f4; stroke:none;" d="M157 481L158 482L157 481z"/>
<path style="fill:#9dbaf2; stroke:none;" d="M410 481L411 482L410 481z"/>
<path style="fill:#aec6f4; stroke:none;" d="M159 482L160 483L159 482z"/>
<path style="fill:#96b5f1; stroke:none;" d="M408 482L409 483L408 482z"/>
<path style="fill:#b2c9f5; stroke:none;" d="M161 483L162 484L161 483z"/>
<path style="fill:#9dbaf2; stroke:none;" d="M406 483L407 484L406 483z"/>
<path style="fill:#b5cbf5; stroke:none;" d="M163 484L164 485L163 484z"/>
<path style="fill:#acc5f4; stroke:none;" d="M404 484L405 485L404 484z"/>
<path style="fill:#b9cef6; stroke:none;" d="M165 485L166 486L165 485z"/>
<path style="fill:#bcd0f6; stroke:none;" d="M402 485L403 486L402 485z"/>
<path style="fill:#bdd0f6; stroke:none;" d="M167 486L168 487L167 486z"/>
<path style="fill:#8aadef; stroke:none;" d="M399 486L400 487L399 486z"/>
<path style="fill:#c0d3f7; stroke:none;" d="M169 487L170 488L169 487z"/>
<path style="fill:#9ab8f2; stroke:none;" d="M397 487L398 488L397 487z"/>
<path style="fill:#aac4f4; stroke:none;" d="M395 488L396 489L395 488z"/>
<path style="fill:#bacff6; stroke:none;" d="M393 489L394 490L393 489z"/>
<path style="fill:#cbdbf8; stroke:none;" d="M390.667 490.333C390.222 490.778 391.278 490.722 391.333 490.667C391.778 490.222 390.722 490.278 390.667 490.333z"/>
<path style="fill:#8aadef; stroke:none;" d="M178.667 491.333C178.222 491.778 179.278 491.722 179.333 491.667C179.778 491.222 178.722 491.278 178.667 491.333z"/>
<path style="fill:#bcd0f6; stroke:none;" d="M387.667 491.333C387.222 491.778 388.278 491.722 388.333 491.667C388.778 491.222 387.722 491.278 387.667 491.333z"/>
<path style="fill:#739dec; stroke:none;" d="M181.667 492.333C181.222 492.778 182.278 492.722 182.333 492.667C182.778 492.222 181.722 492.278 181.667 492.333z"/>
<path style="fill:#d6e2f9; stroke:none;" d="M382.667 493.333C382.222 493.778 383.278 493.722 383.333 493.667C383.778 493.222 382.722 493.278 382.667 493.333z"/>
<path style="fill:#7da4ee; stroke:none;" d="M186.667 494.333C186.222 494.778 187.278 494.722 187.333 494.667C187.778 494.222 186.722 494.278 186.667 494.333z"/>
<path style="fill:#c7d8f7; stroke:none;" d="M379.667 494.333C379.222 494.778 380.278 494.722 380.333 494.667C380.778 494.222 379.722 494.278 379.667 494.333z"/>
<path style="fill:#88acef; stroke:none;" d="M191.667 496.333C191.222 496.778 192.278 496.722 192.333 496.667C192.778 496.222 191.722 496.278 191.667 496.333z"/>
<path style="fill:#729cec; stroke:none;" d="M194.667 497.333C194.222 497.778 195.278 497.722 195.333 497.667C195.778 497.222 194.722 497.278 194.667 497.333z"/>
<path style="fill:#b4caf5; stroke:none;" d="M370.667 497.333C370.222 497.778 371.278 497.722 371.333 497.667C371.778 497.222 370.722 497.278 370.667 497.333z"/>
<path style="fill:#85a9ef; stroke:none;" d="M197.667 498.333C197.222 498.778 198.278 498.722 198.333 498.667C198.778 498.222 197.722 498.278 197.667 498.333z"/>
<path style="fill:#c7d8f8; stroke:none;" d="M367.667 498.333C367.222 498.778 368.278 498.722 368.333 498.667C368.778 498.222 367.722 498.278 367.667 498.333z"/>
<path style="fill:#97b6f1; stroke:none;" d="M200.667 499.333C200.222 499.778 201.278 499.722 201.333 499.667C201.778 499.222 200.722 499.278 200.667 499.333z"/>
<path style="fill:#acc5f4; stroke:none;" d="M363.667 499.333C363.222 499.778 364.278 499.722 364.333 499.667C364.778 499.222 363.722 499.278 363.667 499.333z"/>
<path style="fill:#7ba3ed; stroke:none;" d="M204.667 500.333C204.222 500.778 205.278 500.722 205.333 500.667C205.778 500.222 204.722 500.278 204.667 500.333z"/>
<path style="fill:#c5d6f7; stroke:none;" d="M360.667 500.333C360.222 500.778 361.278 500.722 361.333 500.667C361.778 500.222 360.722 500.278 360.667 500.333z"/>
<path style="fill:#8eb0f0; stroke:none;" d="M207.667 501.333C207.222 501.778 208.278 501.722 208.333 501.667C208.778 501.222 207.722 501.278 207.667 501.333z"/>
<path style="fill:#739dec; stroke:none;" d="M211.667 502.333C211.222 502.778 212.278 502.722 212.333 502.667C212.778 502.222 211.722 502.278 211.667 502.333z"/>
<path style="fill:#c5d6f7; stroke:none;" d="M353.667 502.333C353.222 502.778 354.278 502.722 354.333 502.667C354.778 502.222 353.722 502.278 353.667 502.333z"/>
<path style="fill:#8caef0; stroke:none;" d="M214.667 503.333C214.222 503.778 215.278 503.722 215.333 503.667C215.778 503.222 214.722 503.278 214.667 503.333z"/>
<path style="fill:#b5cbf5; stroke:none;" d="M349.667 503.333C349.222 503.778 350.278 503.722 350.333 503.667C350.778 503.222 349.722 503.278 349.667 503.333z"/>
<path style="fill:#9cbaf2; stroke:none;" d="M218.667 504.333C218.222 504.778 219.278 504.722 219.333 504.667C219.778 504.222 218.722 504.278 218.667 504.333z"/>
<path style="fill:#a7c1f3; stroke:none;" d="M344 504C345.248 504.685 345.548 504.749 347 505C345.752 504.315 345.452 504.251 344 504z"/>
<path style="fill:#9cbaf2; stroke:none;" d="M223.667 505.333C223.222 505.778 224.278 505.722 224.333 505.667C224.778 505.222 223.722 505.278 223.667 505.333z"/>
<path style="fill:#bfd2f6; stroke:none;" d="M340.667 505.333C340.222 505.778 341.278 505.722 341.333 505.667C341.778 505.222 340.722 505.278 340.667 505.333z"/>
<path style="fill:#9cbaf2; stroke:none;" d="M228.667 506.333C228.222 506.778 229.278 506.722 229.333 506.667C229.778 506.222 228.722 506.278 228.667 506.333z"/>
<path style="fill:#b1c8f5; stroke:none;" d="M335.667 506.333C335.222 506.778 336.278 506.722 336.333 506.667C336.778 506.222 335.722 506.278 335.667 506.333z"/>
<path style="fill:#9cbaf2; stroke:none;" d="M233.667 507.333C233.222 507.778 234.278 507.722 234.333 507.667C234.778 507.222 233.722 507.278 233.667 507.333z"/>
<path style="fill:#a2bef3; stroke:none;" d="M330 507C331.248 507.685 331.548 507.749 333 508C331.752 507.315 331.452 507.251 330 507z"/>
<path style="fill:#a0bdf2; stroke:none;" d="M238.667 508.333C238.222 508.778 239.278 508.722 239.333 508.667C239.778 508.222 238.722 508.278 238.667 508.333z"/>
<path style="fill:#7aa2ed; stroke:none;" d="M240.667 508.333C240.222 508.778 241.278 508.722 241.333 508.667C241.778 508.222 240.722 508.278 240.667 508.333z"/>
<path style="fill:#88abef; stroke:none;" d="M323 508C324.248 508.685 324.548 508.749 326 509C324.752 508.315 324.452 508.251 323 508z"/>
<path style="fill:#d3e0f9; stroke:none;" d="M326.667 508.333C326.222 508.778 327.278 508.722 327.333 508.667C327.778 508.222 326.722 508.278 326.667 508.333z"/>
<path style="fill:#ceddf8; stroke:none;" d="M245.667 509.333C245.222 509.778 246.278 509.722 246.333 509.667C246.778 509.222 245.722 509.278 245.667 509.333z"/>
<path style="fill:#a8c2f3; stroke:none;" d="M247 509C248.248 509.685 248.548 509.749 250 510C248.752 509.315 248.452 509.251 247 509z"/>
<path style="fill:#6e9aec; stroke:none;" d="M250.667 509.333C250.222 509.778 251.278 509.722 251.333 509.667C251.778 509.222 250.722 509.278 250.667 509.333z"/>
<path style="fill:#8caef0; stroke:none;" d="M316 509C317.248 509.685 317.548 509.749 319 510C317.752 509.315 317.452 509.251 316 509z"/>
<path style="fill:#d7e3fa; stroke:none;" d="M319.667 509.333C319.222 509.778 320.278 509.722 320.333 509.667C320.778 509.222 319.722 509.278 319.667 509.333z"/>
<path style="fill:#d6e2fa; stroke:none;" d="M254 510C255.248 510.685 255.548 510.749 257 511C255.752 510.315 255.452 510.251 254 510z"/>
<path style="fill:#9cbaf2; stroke:none;" d="M257 510C258.248 510.685 258.548 510.749 260 511C258.752 510.315 258.452 510.251 257 510z"/>
<path style="fill:#90b1f0; stroke:none;" d="M309.667 510.333C309.222 510.778 310.278 510.722 310.333 510.667C310.778 510.222 309.722 510.278 309.667 510.333z"/>
<path style="fill:#c2d5f7; stroke:none;" d="M311 510C312.248 510.685 312.548 510.749 314 511C312.752 510.315 312.452 510.251 311 510z"/>
<path style="fill:#dce6fa; stroke:none;" d="M264 511C266.052 511.874 267.747 511.953 270 512C267.948 511.126 266.253 511.047 264 511z"/>
<path style="fill:#a8c2f3; stroke:none;" d="M270 511C272.613 512.098 275.165 511.993 278 512C275.387 510.902 272.836 511.007 270 511z"/>
<path style="fill:#749eec; stroke:none;" d="M278 511C280.332 511.985 282.457 511.981 285 512C282.668 511.015 280.543 511.019 278 511z"/>
<path style="fill:#95b5f1; stroke:none;" d="M291 511C293.89 512.213 296.874 511.998 300 512C297.11 510.787 294.126 511.002 291 511z"/>
<path style="fill:#e3ebfb; stroke:none;" d="M300 511C302.052 511.874 303.747 511.953 306 512C303.948 511.126 302.253 511.047 300 511z"/>
</svg>
