<svg id="Capa_1" enable-background="new 0 0 512.046 512.046" height="512" viewBox="0 0 512.046 512.046" width="512" xmlns="http://www.w3.org/2000/svg"><g><path d="m395.316 181.391-108.61 23.75 53.1-185.98c4.62-16.17-17-26.52-26.69-12.75l-47.73 67.81-164.13 233.19c-7.96 11.31 2.42 26.5 15.85 23.19l96.79-23.82-52.94 186.16c-4.56 16.04 16.67 26.26 26.48 13.03l77.95-105.15 145.19-195.85c8.23-11.11-1.75-26.54-15.26-23.58z" fill="#ffdf8e"/><path d="m410.576 204.971-145.19 195.85v-326.6l47.73-67.81c9.69-13.77 31.31-3.42 26.69 12.75l-53.1 185.98 108.61-23.75c13.51-2.96 23.49 12.47 15.26 23.58z" fill="#ffb64c"/><path d="m385.636 422.043-35.999-.6 19.12-37.603c3.755-7.385.813-16.415-6.572-20.169-7.386-3.756-16.415-.813-20.17 6.572l-30 59c-6.103 11.965 1.884 19.807 13.387 21.801l35.914.599-19.345 38.691c-3.705 7.41-.702 16.419 6.708 20.125 7.424 3.712 16.426.687 20.124-6.708l30-60c4.927-9.858-2.203-21.546-13.167-21.708z" fill="#ffb64c"/><path d="m152.094 1.624c-7.41-3.704-16.42-.701-20.125 6.708l-30 60c-4.879 9.759 2.079 21.708 13.504 21.708h35.642l-19.146 38.292c-3.705 7.41-.701 16.419 6.708 20.125 7.424 3.712 16.427.687 20.125-6.708l30-60c4.991-9.983-2.35-21.708-13.417-21.708h-35.729l19.146-38.292c3.705-7.41.701-16.42-6.708-20.125z" fill="#ffdf8e"/></g></svg>