<?xml version="1.0" encoding="utf-8"?>
<!-- Generator: Adobe Illustrator 16.0.0, SVG Export Plug-In . SVG Version: 6.00 Build 0)  -->
<!DOCTYPE svg PUBLIC "-//W3C//DTD SVG 1.1//EN" "http://www.w3.org/Graphics/SVG/1.1/DTD/svg11.dtd">
<svg version="1.1" xmlns="http://www.w3.org/2000/svg" xmlns:xlink="http://www.w3.org/1999/xlink" x="0px" y="0px"
	 width="248.978px" height="248.979px" viewBox="0 0 248.978 248.979" enable-background="new 0 0 248.978 248.979"
	 xml:space="preserve">
<g id="图层_2">
	<path fill="#FFFFFF" d="M244.269,113.389L135.558,4.689c-6.273-6.252-16.423-6.252-22.698,0L90.338,27.253l16.934,39.592
		c9.974-3.379,32.497-8.992,35.875,0.982c1.357,4.005,1.344,8.348-0.035,12.345l27.572,27.595
		c9.947-3.458,20.814,1.801,24.273,11.748c2.406,6.922,0.635,14.611-4.563,19.779c-7.436,7.448-19.502,7.458-26.949,0.021
		c-0.008-0.007-0.016-0.015-0.021-0.021c-5.424-5.438-7.074-13.589-4.193-20.707L133.412,92.9v67.691
		c1.824,0.893,3.547,2.105,5.063,3.61c7.395,7.47,7.395,19.502,0,26.973c-7.469,7.474-19.58,7.479-27.054,0.012
		c-0.003-0.004-0.008-0.007-0.012-0.012c-7.442-7.419-7.463-19.464-0.045-26.906c0.015-0.017,0.029-0.03,0.045-0.047
		c1.888-1.867,4.015-3.277,6.276-4.211V91.656c-9.727-3.977-14.389-15.085-10.412-24.811c0.026-0.064-16.96-39.528-16.934-39.592
		L79.217,38.385L4.668,112.881c-6.225,6.276-6.225,16.433,0,22.708l108.721,108.69c6.256,6.263,16.405,6.268,22.667,0.012
		c0.006-0.004,0.008-0.008,0.012-0.012l108.201-108.201c6.266-6.246,6.281-16.388,0.035-22.653
		C244.294,113.413,244.283,113.401,244.269,113.389"/>
</g>
<g id="图层_1">
	<path fill="#498278" d="M221.761,115.933l-87.325-87.316c-5.04-5.022-13.193-5.022-18.233,0L98.111,46.741l23,23
		c8.011-2.714,16.707,1.58,19.421,9.592c1.09,3.217,1.079,6.706-0.029,9.916l22.149,22.167c7.989-2.778,16.72,1.447,19.497,9.437
		c1.934,5.56,0.51,11.737-3.664,15.888c-5.973,5.983-15.666,5.991-21.648,0.018c-0.006-0.006-0.012-0.012-0.018-0.018
		c-4.355-4.368-5.682-10.915-3.367-16.633L132.71,99.475v54.375c1.467,0.717,2.851,1.691,4.067,2.9c5.939,6,5.939,15.665,0,21.666
		c-5.999,6.004-15.728,6.008-21.732,0.01c-0.003-0.003-0.006-0.006-0.01-0.01c-5.979-5.959-5.995-15.635-0.036-21.613
		c0.012-0.013,0.024-0.024,0.036-0.037c1.517-1.5,3.225-2.633,5.042-3.383V98.475c-7.813-3.194-11.558-12.117-8.363-19.93
		c0.021-0.051,0.042-0.102,0.063-0.153l-22.6-22.708l-59.883,59.841c-5,5.042-5,13.2,0,18.241l87.333,87.309
		c5.025,5.03,13.177,5.034,18.208,0.009c0.004-0.003,0.006-0.006,0.009-0.009l86.917-86.916c5.032-5.018,5.045-13.164,0.028-18.197
		C221.781,115.952,221.771,115.942,221.761,115.933"/>
	<g>
	</g>
	<g>
	</g>
	<g>
	</g>
	<g>
	</g>
	<g>
	</g>
	<g>
	</g>
</g>
</svg>
