<svg xmlns="http://www.w3.org/2000/svg" viewBox="0 0 1024 1024" width="1024" height="1024">
	<style>
		tspan { white-space:pre }
		.shp0 { fill: #36b27d } 
		.shp1 { fill: #ffffff } 
	</style>
	<path id="Layer" class="shp0" d="M534.49 806.51L491.92 806.51C342.04 806.51 219.41 683.88 219.41 534L219.41 491.43C219.41 341.55 342.04 218.92 491.92 218.92L534.49 218.92C684.37 218.92 807 341.55 807 491.43L807 534C807 683.88 684.37 806.51 534.49 806.51Z" />
	<path id="Layer" class="shp1" d="M512.33 350.61C423.18 350.61 350.88 422.9 350.88 512.08C350.88 583.41 397.14 643.93 461.31 665.28C469.38 666.76 472.33 661.78 472.33 657.5C472.33 653.67 472.19 643.51 472.11 630.04C427.2 639.79 417.72 608.39 417.72 608.39C410.38 589.74 399.79 584.78 399.79 584.78C385.13 574.76 400.9 574.96 400.9 574.96C417.1 576.1 425.63 591.6 425.63 591.6C440.04 616.27 463.42 609.15 472.62 605.02C474.09 594.58 478.26 587.47 482.87 583.43C447.02 579.36 409.33 565.5 409.33 503.63C409.33 486.01 415.62 471.59 425.95 460.31C424.29 456.22 418.75 439.8 427.53 417.58C427.53 417.58 441.09 413.23 471.93 434.13C484.81 430.55 498.62 428.75 512.35 428.69C526.06 428.75 539.88 430.55 552.77 434.13C583.6 413.23 597.13 417.58 597.13 417.58C605.94 439.8 600.4 456.22 598.74 460.31C609.08 471.59 615.33 486 615.33 503.63C615.33 565.66 577.58 579.31 541.61 583.3C547.41 588.29 552.57 598.14 552.57 613.2C552.57 634.79 552.38 652.2 552.38 657.5C552.38 661.82 555.29 666.84 563.48 665.26C627.58 643.87 673.8 583.39 673.8 512.08C673.8 422.9 601.51 350.61 512.33 350.61Z" />
</svg>